ply
format ascii 1.0
comment Written with hapPLY (https://github.com/nmwsharp/happly)
element vertex 894
property float x
property float y
property float z
end_header
0.306985974 -0.00605148403 0.658647358
0.570125639 -0.019038355 0.690744758
0.28422603 0.00455165887 0.639797747
0.38467133 0.000338415062 0.757500648
0.602175057 -0.0315355808 0.668580532
0.157296136 -0.0447794087 0.691061318
0.361867845 0.0160183813 0.599648476
0.491839737 0.0443888679 0.71702224
0.676508129 0.0323311575 0.730303109
0.192285046 0.0113254245 0.645837605
0.360068411 0.0679745674 0.591707766
0.495577186 0.0308463573 0.70241195
0.599170506 -0.00283084414 0.650623143
0.183150306 0.0146382572 0.624139547
0.336904585 0.0757352561 0.596785963
0.46566081 -0.0094305696 0.676806927
0.605583668 0.0395031571 0.694072425
0.755063474 -0.0039165481 0.571826756
0.218858406 0.0219861977 0.665178657
0.402921557 0.0291250721 0.697645903
0.529742181 0.0259788278 0.696379483
0.644066751 0.0230123494 0.624421656
0.832458794 0.00912256539 0.522099137
0.287214309 0.0082753133 0.703490257
0.426220536 0.0600303262 0.697317481
0.574004531 0.0236572772 0.707911253
0.722118318 0.0191874392 0.661666036
0.163743943 0.0556208603 0.409592301
0.312193334 0.0245001577 0.674314022
0.445931345 0.020751236 0.706053197
0.568817556 0.0791891143 0.639544666
0.697445631 0.0325065218 0.665337443
0.164320379 0.0210663546 0.392719269
0.297428131 0.036309313 0.653701782
0.437622577 0.0436971113 0.713532746
0.585190356 0.0734074712 0.702820659
0.729479373 -0.00526490947 0.681807518
0.148010805 0.022025723 0.425431043
0.274467885 0.123871885 0.689904153
0.440546334 -0.00280388817 0.690054297
0.585277438 0.0115441279 0.650712967
0.727178693 0.0423836783 0.643553555
0.847541571 0.0112873102 0.499234229
0.272121191 0.0462780744 0.661601663
0.429719388 0.00225029234 0.726221025
0.540237904 0.0790474191 0.688456476
0.71268326 0.047181122 0.678537607
0.854163051 0.038630642 0.544121087
0.262318283 0.042313043 0.646382987
0.391103625 0.055628635 0.726138115
0.482575268 0.0334234983 0.703734398
0.705687225 0.0491895191 0.658233464
0.831782818 0.0539122075 0.546302557
0.217677057 0.0675000399 0.655538976
0.398925662 0.0852122158 0.67288965
0.519968748 0.0580823459 0.689126015
0.66883111 0.0504374802 0.664454341
0.811567068 0.0602918006 0.569988132
0.209809124 0.0416492745 0.602793157
0.245490462 0.0779668316 0.661257267
0.406190962 0.0806889758 0.75241518
0.654966474 0.087123245 0.732053757
0.683082998 0.0892248526 0.651966393
0.158441141 0.0627513379 0.395491093
0.297235847 0.0660108477 0.63499701
0.428160995 0.070244953 0.707444906
0.671004176 0.0731487572 0.697880447
0.71136272 0.0540788136 0.640917897
0.880071878 0.0428637713 0.569066823
0.230043381 0.0959661603 0.60805887
0.379775792 0.080862537 0.619864881
0.54350251 0.064972043 0.680311203
0.69627887 0.0963876545 0.649086654
0.890523911 0.015860064 0.602466941
0.168432042 -0.000401457073 0.479344279
0.344025671 0.0717306137 0.62702018
0.48728019 0.0440165065 0.674156666
0.63675195 0.0749311596 0.695620477
0.826106727 0.127019778 0.644379497
0.934625626 0.0620750599 0.52586776
0.280932903 0.0836866349 0.62222445
0.431236804 0.0932675451 0.679702878
0.571991801 0.0718163922 0.700455785
0.728440523 0.0775284246 0.631298304
0.873116255 0.0689967275 0.574666202
0.243448988 0.0626062155 0.445587784
0.40746367 0.0232314616 0.675725818
0.531795204 0.0885619298 0.696446419
0.672561288 0.0502847806 0.697748125
0.818106234 0.0811620876 0.572065473
0.18508406 0.0561906546 0.397073448
0.366681457 0.148579165 0.637055993
0.469582945 0.063294895 0.68809098
0.588477015 0.146500885 0.735151708
0.763804793 0.0537460037 0.566996872
0.919041455 0.095249854 0.54600507
0.392231524 0.0891473666 0.662397444
0.448646069 0.0790644288 0.652511895
0.619957685 0.194029987 0.750198245
0.726173878 0.0907268971 0.656554759
0.853058159 0.0988816842 0.55949986
0.315122098 0.0956544727 0.57871902
0.427462786 0.0605351925 0.662241817
0.553793192 0.105869889 0.709840894
0.727530479 0.0885212347 0.671534359
0.849526227 0.0894984901 0.574494958
0.224113062 0.0767004192 0.469313383
0.373440981 0.0423530638 0.619293034
0.528088987 0.0929278359 0.725923181
0.66532582 0.12021032 0.684480608
0.803734541 0.106479086 0.49792546
0.973353803 0.0848564804 0.478851348
0.383400023 0.0876402184 0.621594012
0.461114734 0.10755074 0.751888216
0.687455654 0.0722768232 0.73861593
0.807120502 0.0990658402 0.615915775
1.00798166 0.0555188023 0.49266389
0.368861616 0.109230421 0.674190998
0.509235322 0.117264137 0.701675534
0.647160113 0.167354137 0.693823874
0.813508928 0.0916491002 0.639437079
0.94839555 0.0911860168 0.554393649
0.302663147 0.0871591493 0.622407913
0.430104584 0.109431893 0.664865971
0.64357996 0.115078464 0.756042778
0.818708658 0.160119236 0.606600642
0.887746394 0.101128243 0.588994622
0.278590202 0.108787939 0.59155196
0.471352279 0.105964109 0.644971967
0.543315113 0.135354429 0.76858288
0.727064371 0.128142416 0.692121089
0.883871555 0.0423728637 0.601807058
0.269344836 0.118939228 0.555890679
0.386416823 0.144735858 0.535380304
0.543564558 0.143360391 0.726848423
0.695050061 0.152019009 0.731475055
0.817787826 0.107470721 0.566314518
0.253113568 0.112936579 0.432548434
0.36991632 0.100071043 0.657014191
0.567500114 0.168255389 0.712602973
0.673493803 0.0893469304 0.759538829
0.844268143 0.11079888 0.58214581
0.986256063 0.127893493 0.537010014
0.329636097 0.12117894 0.638560653
0.463592589 0.119932584 0.633797526
0.614328086 0.142190367 0.726042032
0.783245623 0.120342411 0.629746497
0.958745003 0.12842685 0.564647973
0.307981521 0.141067594 0.627765894
0.453927428 0.132579952 0.677058399
0.578285635 0.237855703 0.728430986
0.790548861 0.13879858 0.661196351
0.970632315 0.138556853 0.604764342
0.23326984 0.203138784 0.537401319
0.441322893 0.149122164 0.631958067
0.585009277 0.147598401 0.724523783
0.735065877 0.143243074 0.668680072
0.854195893 0.119355008 0.552978635
0.279191196 0.175214097 0.558384359
0.44649595 0.186199114 0.633847952
0.586343288 0.0901970044 0.733200669
0.720679581 0.152264148 0.704106808
0.885857224 0.0736097172 0.571253955
0.285580426 0.161069855 0.472872674
0.40504536 0.189355686 0.649261296
0.520638824 0.155478925 0.718013644
0.751891971 0.19067134 0.757110476
0.814240098 0.145680442 0.62516427
0.930501342 0.154550284 0.610764027
0.328759819 0.155051351 0.639036953
0.470081419 0.158170819 0.678790808
0.54013294 0.160901114 0.812984645
0.830436647 0.13809301 0.61406225
0.973384559 0.154330075 0.589063346
0.29673937 0.142419457 0.545418441
0.422594935 0.183696821 0.614376724
0.551011384 0.189078242 0.729608595
0.69391799 0.181924373 0.698794961
0.832378983 0.101387732 0.52434808
0.975692928 0.148568973 0.494633526
0.316027105 0.16650188 0.643308997
0.472297668 0.188636273 0.65096283
0.648467124 0.185098141 0.75836134
0.781717598 0.159589678 0.674290359
0.92659235 0.158144057 0.50776577
0.242160037 0.154545739 0.536799788
0.35706237 0.212912992 0.577762723
0.525110424 0.171610519 0.746915638
0.638844848 0.14103806 0.790092289
0.802925229 0.145994172 0.628743887
0.961876094 0.166175693 0.538500845
0.274568588 0.181389585 0.583220243
0.42393443 0.175246671 0.681420386
0.55557704 0.167820096 0.736433208
0.742705584 0.156914622 0.771564066
0.880906641 0.163461909 0.574297011
1.00973201 0.12560311 0.49657768
0.260763288 0.164270669 0.562385261
0.474956274 0.190682888 0.623900473
0.602985919 0.201692626 0.739949524
0.73198843 0.179366231 0.675874233
0.877782226 0.1459838 0.603057146
0.136918336 0.234011173 0.57817024
0.228497028 0.248036519 0.552575648
0.466000795 0.185205922 0.676337302
0.60343796 0.172427163 0.747592628
0.750284612 0.18881014 0.669259727
0.955174685 0.10457436 0.54460603
0.202347755 0.228572085 0.583291352
0.32616958 0.185017556 0.633517265
0.49306491 0.171297997 0.662764609
0.619058728 0.205132306 0.73133558
0.765206754 0.18569164 0.665384591
0.902639568 0.217253447 0.551069379
0.203592837 0.161790326 0.554893315
0.325727314 0.243632525 0.665330052
0.463127375 0.186738029 0.627226889
0.606796563 0.181757554 0.747543037
0.749659359 0.184836745 0.60683918
0.940878212 0.149211049 0.543447256
0.183277473 0.189440534 0.572858334
0.32853061 0.188221723 0.642387629
0.47748813 0.168634757 0.72739774
0.61916101 0.214008838 0.724990308
0.800102711 0.187648609 0.643028975
0.967993259 0.223947331 0.508824229
0.169959083 0.184723973 0.575618923
0.384047717 0.164116725 0.636669636
0.463799953 0.201405138 0.697382033
0.593887031 0.205403924 0.725786209
0.761921763 0.238204658 0.680061519
0.856249928 0.216223329 0.526926279
0.171438709 0.174764559 0.641901195
0.371263146 0.158033848 0.669697642
0.478202134 0.190085664 0.692963243
0.624818385 0.206804127 0.731912255
0.75168848 0.280833304 0.639843285
0.882202387 0.212267056 0.533769369
0.15895924 0.187088251 0.566781878
0.319404274 0.207109436 0.642829776
0.468415201 0.21437338 0.70489645
0.591206372 0.195144624 0.721553564
0.734531522 0.195386723 0.670241237
0.909486949 0.169287175 0.554717839
0.173784167 0.185831994 0.521991491
0.326655984 0.241428658 0.658034623
0.462844163 0.217166036 0.706463754
0.581614852 0.268710822 0.734909177
0.762539804 0.202932775 0.650629699
0.887964487 0.184220359 0.567527115
0.132876799 0.222673833 0.625415921
0.275523663 0.23227632 0.635443151
0.404754907 0.203129962 0.706954122
0.609742403 0.23070699 0.723239601
0.745547831 0.248234093 0.70025301
0.896323085 0.204346061 0.509311616
0.161952466 0.226433903 0.592212737
0.304763049 0.22214897 0.637900889
0.429825038 0.154051051 0.725953996
0.566433012 0.130210385 0.730941713
0.7426669 0.220285341 0.688805997
0.907251596 0.249878615 0.546187341
0.185545802 0.254803538 0.667660952
0.202251822 0.24807997 0.657265782
0.431681812 0.244406343 0.659232557
0.56438005 0.239279673 0.759061396
0.727238715 0.218741313 0.692936301
0.881359398 0.210755527 0.552137792
0.0410952382 0.253355324 0.485777617
0.2508035 0.231467694 0.63053441
0.394518912 0.233253837 0.630412102
0.534190655 0.299593985 0.799300849
0.739031792 0.251901507 0.787789464
0.854220569 0.248895168 0.585690379
0.946602881 0.230345815 0.500087917
0.213883132 0.232004628 0.650541186
0.361100703 0.241598159 0.639646769
0.519412339 0.229435325 0.750822783
0.710582197 0.245560646 0.718869388
0.757666469 0.301476747 0.629760742
0.962261796 0.229291782 0.474555701
0.145854533 0.235088721 0.589138389
0.348614395 0.228143394 0.608910739
0.402426511 0.265806586 0.710100293
0.627815783 0.240165979 0.753287733
0.733493984 0.217954576 0.750080407
0.965189397 0.199299425 0.557106197
0.14695169 0.240951911 0.608760059
0.274960309 0.252027541 0.658360183
0.416856557 0.278540105 0.629017889
0.586664259 0.267231852 0.832575381
0.731741071 0.209765792 0.724911213
0.926476836 0.235671207 0.539627314
0.148135781 0.296873122 0.61719352
0.307287961 0.262230098 0.581495821
0.423639417 0.252810478 0.656868875
0.599986851 0.251485407 0.788281202
0.704572022 0.249429986 0.721944928
0.875810802 0.313589871 0.593117774
0.0953118503 0.254687965 0.575256109
0.261021525 0.25339815 0.645731449
0.309648484 0.239879653 0.61999917
0.549146652 0.202375323 0.721071005
0.703933179 0.259833634 0.72316879
0.872737527 0.205106944 0.603855848
0.100154132 0.238137603 0.672031283
0.316920638 0.279623806 0.62321198
0.424379796 0.252243817 0.596367836
0.564550281 0.283664495 0.741157413
0.660792172 0.224289045 0.694166958
0.849190235 0.259593159 0.602818489
0.164382786 0.269593567 0.659602582
0.286920607 0.251090318 0.630595744
0.438089877 0.277292162 0.732396841
0.597082138 0.304250956 0.7143448
0.74674648 0.288291872 0.713963509
0.857740343 0.231236637 0.473556578
0.272200227 0.208310932 0.647888958
0.329942733 0.25649491 0.619660616
0.4753398 0.31194216 0.724257171
0.675873697 0.294652402 0.757578969
0.744500041 0.328751296 0.641090035
0.0766428262 0.261669517 0.552231014
0.238930464 0.319326073 0.589957297
0.374912351 0.271703482 0.643160701
0.519627392 0.300209105 0.752048373
0.613241434 0.254415333 0.728651762
0.817632377 0.260922462 0.63170439
0.00296342955 0.311071754 0.578498542
0.157060057 0.333871335 0.652715862
0.396776736 0.278601885 0.640399098
0.535367608 0.298064351 0.753693044
0.706294179 0.274332136 0.708647013
0.818170309 0.265546292 0.586511552
0.208967716 0.244688407 0.701023817
0.270742178 0.253863811 0.588362515
0.426924467 0.299665272 0.673299134
0.588548779 0.288681149 0.750526249
0.708847821 0.292547613 0.705208361
0.833831489 0.242475092 0.627894282
0.155826211 0.268527597 0.585602582
0.299403429 0.309061617 0.67604506
0.43303594 0.29483974 0.689961612
0.486158073 0.296302378 0.726659
0.740988493 0.310741216 0.788264275
0.890442967 0.293826461 0.563485265
0.149354219 0.281174242 0.63033545
0.302986681 0.306203574 0.663916349
0.462074101 0.253941178 0.761614561
0.603767574 0.300125986 0.74876374
0.765734136 0.267814279 0.720311046
0.877854466 0.293259263 0.553767383
0.146284685 0.221673071 0.581567824
0.318997413 0.292786062 0.642582297
0.490043461 0.373036772 0.744068205
0.58688724 0.296832472 0.706896186
0.752525687 0.299711317 0.701477885
0.945897579 0.249495998 0.58678484
0.174824774 0.285229445 0.667807937
0.345395327 0.263791889 0.640768111
0.462713897 0.275963783 0.732436001
0.62863183 0.297966242 0.684640229
0.757065654 0.333313733 0.684469163
0.0374939851 0.304325759 0.500966132
0.168932915 0.246179357 0.615110517
0.352357239 0.232366607 0.672691405
0.543369174 0.322839648 0.76462549
0.6189605 0.360730201 0.779518545
0.770745456 0.31090486 0.687776029
0.047385864 0.364994735 0.559446692
0.195722431 0.305126846 0.656135082
0.361443698 0.30773586 0.652543724
0.510608733 0.314669073 0.748012304
0.648619473 0.31252709 0.735477686
0.780742407 0.309753418 0.641750395
0.0844166279 0.350104809 0.583699822
0.221619725 0.302027524 0.658087552
0.390764654 0.223385453 0.661005378
0.51541698 0.326447546 0.740112543
0.662532628 0.3175053 0.738237023
0.748773515 0.291166037 0.615002573
0.0958308354 0.336428255 0.605146527
0.214403734 0.277854651 0.659563184
0.42680043 0.282157391 0.675632238
0.515334666 0.354387313 0.742438257
0.674578249 0.325209945 0.72285974
0.818947136 0.324864924 0.633236229
0.133381367 0.324103862 0.615406215
0.225510374 0.332974255 0.671876192
0.477733046 0.367850363 0.611586332
0.597855031 0.289633691 0.790462136
0.722052753 0.335724533 0.7019099
0.862959862 0.339943856 0.639574468
0.115475237 0.325204015 0.621326745
0.308296174 0.315217286 0.623430789
0.430360526 0.350762337 0.666199744
0.576421857 0.351309717 0.729634106
0.718420804 0.352521151 0.742897749
0.856942475 0.334068775 0.573539019
0.133111149 0.373058826 0.626378536
0.273089021 0.337638348 0.658474505
0.391263336 0.29870528 0.686869025
0.561575532 0.340108663 0.73754853
0.66298455 0.371805519 0.711823583
0.843710065 0.322645366 0.612415969
0.148217037 0.325260222 0.687340438
0.245775566 0.292008251 0.695974171
0.426675349 0.369251758 0.655305684
0.612359762 0.392102957 0.74347353
0.736100078 0.33381021 0.693417192
0.863976598 0.331258297 0.5969311
0.130011514 0.355949044 0.643656015
0.287956148 0.3269279 0.64654547
0.438644499 0.373842567 0.724057138
0.615057766 0.372133911 0.763418078
0.719100833 0.361512899 0.699426115
0.872769296 0.343262732 0.632383823
0.0225098021 0.314241201 0.683213532
0.271961302 0.370872647 0.628233314
0.436508685 0.390280753 0.679190218
0.566009402 0.382936567 0.78426975
0.708501399 0.340411127 0.729889274
0.862749517 0.33968544 0.581024468
0.111259833 0.305761874 0.604889512
0.275538296 0.350919724 0.647683918
0.398051769 0.332371891 0.681964576
0.542988479 0.368969142 0.771122456
0.724337697 0.316040367 0.70457077
0.860776961 0.33610025 0.592525363
0.120594144 0.331797928 0.656960428
0.282205611 0.3578462 0.641504705
0.393197477 0.373671353 0.634431005
0.661315024 0.389159977 0.694538593
0.713801205 0.361836612 0.693080485
0.87950933 0.371693373 0.61486721
0.0597228929 0.361870706 0.662769318
0.274968624 0.359191895 0.654883265
0.461096883 0.372168005 0.652645528
0.587131023 0.37360394 0.667944014
0.755390644 0.356698334 0.644260347
0.890376508 0.299455971 0.547983944
0.115575083 0.366428286 0.632096171
0.374578416 0.31800878 0.641832173
0.423536092 0.346224964 0.644879103
0.565292895 0.371752769 0.728895068
0.654517174 0.346661836 0.653565824
0.860541761 0.298239261 0.6035043
0.136990324 0.399454743 0.632292628
0.295162022 0.350694329 0.637935936
0.393193364 0.381469101 0.701244354
0.57480967 0.36816296 0.74607867
0.724291146 0.388327181 0.684229076
0.905333102 0.360376805 0.614047945
0.161862031 0.339444071 0.625383914
0.263830125 0.378173888 0.656193733
0.426302105 0.407721728 0.644033194
0.552021027 0.412674606 0.751699984
0.711078167 0.375861794 0.682190299
0.829683125 0.40417704 0.581095874
0.131941721 0.37606439 0.607583582
0.271454632 0.379932672 0.649833322
0.424605459 0.386267036 0.605868936
0.56600523 0.384289563 0.701014042
0.746639013 0.378812641 0.695036352
0.913377762 0.402340502 0.5782215
0.102978744 0.388356596 0.616577864
0.280406803 0.383003443 0.657599986
0.449341029 0.349830091 0.668245375
0.550225854 0.363722563 0.784950078
0.738103211 0.372205317 0.675404608
0.848523498 0.35255152 0.558350146
0.156029686 0.385379553 0.631872773
0.345509261 0.40743047 0.589331925
0.442003369 0.381251723 0.65010643
0.596592307 0.423502415 0.734707534
0.723660111 0.390028566 0.672136545
0.851617992 0.337780833 0.545220971
0.136927217 0.380956471 0.646290839
0.352625042 0.385435432 0.648549139
0.493137389 0.397350192 0.649417102
0.583367407 0.364189535 0.691575766
0.742860496 0.361893982 0.681974709
0.85046488 0.38170585 0.529443145
0.14907895 0.40789938 0.648572743
0.329995483 0.33784923 0.64200151
0.411474407 0.414135247 0.65697366
0.593839467 0.40637508 0.702240705
0.710169613 0.389490396 0.690289378
0.886370063 0.393066198 0.561286747
0.172036067 0.408783734 0.588158369
0.303404331 0.401975721 0.647180498
0.488492519 0.428558409 0.654188693
0.624868572 0.356193572 0.692540586
0.74870187 0.411335737 0.680418849
0.878713489 0.347475797 0.47353676
0.149229333 0.390584916 0.663739443
0.309328794 0.368942857 0.597010195
0.456267238 0.402429074 0.664907694
0.590382278 0.400294334 0.67677784
0.75044775 0.405503809 0.660954952
0.903833568 0.40518418 0.435983539
0.177481145 0.390387028 0.618978024
0.316393405 0.427289784 0.622931898
0.423817694 0.388120264 0.705833375
0.617866457 0.394162387 0.679554284
0.752453327 0.418421447 0.664214313
-0.00258952868 0.381524563 0.487605572
0.139042377 0.424543947 0.692242861
0.359157562 0.406236142 0.566115439
0.46602425 0.409311444 0.606665492
0.619213283 0.447520286 0.64042592
0.764513731 0.417040437 0.669609129
0.0393127576 0.412344694 0.52148658
0.206792191 0.482804745 0.661890507
0.315336734 0.437365919 0.666594684
0.462777376 0.415145248 0.610402524
0.657815397 0.4886145 0.607461512
0.76427269 0.415698916 0.640080452
0.0356061868 0.402756035 0.54027766
0.220421731 0.383272767 0.634763658
0.381424397 0.398615748 0.688147068
0.516812742 0.398548633 0.648322523
0.684375703 0.4733935 0.660090566
0.792967737 0.424265116 0.636066735
0.0870978087 0.383401424 0.559697986
0.225411922 0.427019209 0.644551218
0.370530218 0.425675005 0.629122555
0.533010483 0.436046183 0.651258528
0.660867274 0.420502633 0.648388028
0.815551281 0.402231753 0.621495843
0.0945385695 0.430578828 0.586171091
0.26628834 0.420334727 0.634650052
0.39394787 0.429656446 0.617628992
0.503920376 0.402707368 0.655682743
0.67925328 0.434964031 0.665735006
0.82734865 0.42571491 0.574063241
0.104335397 0.436299026 0.593148887
0.217709512 0.444562554 0.582136333
0.417891353 0.425391585 0.637690485
0.552921116 0.428455561 0.658953965
0.699495912 0.464006603 0.648858845
0.832263172 0.404227912 0.58536166
0.151126623 0.50220114 0.590139866
0.268232405 0.457439303 0.632716
0.447543591 0.400915205 0.572608054
0.583033085 0.431943297 0.663189709
0.718660772 0.470171452 0.638080299
0.0380218178 0.426536977 0.481204897
0.183147267 0.445445687 0.626468778
0.282638222 0.478790969 0.652837455
0.460910499 0.419072062 0.658563197
0.644175828 0.444391549 0.637615085
0.715465486 0.388287276 0.622068882
0.0562850274 0.487789601 0.549690366
0.243375301 0.458939791 0.639341712
0.384910464 0.450078279 0.62431854
0.449298471 0.467344046 0.707121789
0.625163496 0.442847461 0.586392581
0.856790543 0.419696003 0.595624506
0.106183603 0.50658375 0.625136137
0.241857573 0.44730562 0.654926836
0.420770675 0.468433142 0.627851903
0.545943201 0.434323907 0.670467138
0.689551771 0.478585839 0.646808684
0.855200589 0.458068609 0.547432005
0.171683237 0.458569646 0.615939617
0.350686014 0.491273999 0.628220141
0.48785764 0.458597571 0.661126614
0.597686708 0.472053885 0.616666675
0.727782726 0.438866854 0.622661591
0.0655324683 0.468766272 0.577521026
0.225484639 0.463717461 0.619958639
0.329487443 0.480476975 0.638357639
0.581698596 0.437694281 0.731610358
0.701484859 0.477980882 0.614043951
0.835476756 0.40473628 0.557696998
0.186670899 0.436772764 0.612995684
0.264371663 0.462591469 0.609015405
0.487854093 0.518967807 0.611035287
0.574233592 0.46464023 0.64770329
0.704559088 0.536706686 0.573449731
0.0474858768 0.467217177 0.518202722
0.13855204 0.525035322 0.704571009
0.432136327 0.4936454 0.613008976
0.554720998 0.528922975 0.629685581
0.616077721 0.470480919 0.646537483
0.823033273 0.532092631 0.627667189
0.154554933 0.509106994 0.671558201
0.253062487 0.461514413 0.605646849
0.398937732 0.510576785 0.626091003
0.578455389 0.465332329 0.653366089
0.65351373 0.526111901 0.604082942
0.855605602 0.497808903 0.553925276
0.173053131 0.481136739 0.613551855
0.312759697 0.465257913 0.600053728
0.469593108 0.481384724 0.617179573
0.53655529 0.539686263 0.67857033
0.758626699 0.482729554 0.628584862
0.0492072254 0.50905478 0.699773252
0.243754447 0.456402957 0.582760215
0.354804248 0.477116942 0.594681799
0.532070696 0.524647474 0.5868963
0.665101528 0.476870179 0.624442577
0.824415803 0.485398352 0.561543107
0.108699247 0.484562248 0.798628986
0.270888031 0.519657493 0.633119106
0.471485943 0.404225737 0.60379988
0.607157052 0.466524243 0.625813603
0.722946823 0.49046433 0.612006962
-0.0111164842 0.594148517 0.679792047
0.223299801 0.512309253 0.622851431
0.295835525 0.430419773 0.56541729
0.505060673 0.472155511 0.67634052
0.646275222 0.483069152 0.623078704
0.799485087 0.488664448 0.596602678
0.111115523 0.495049626 0.686935484
0.250310123 0.502064645 0.595377326
0.338778049 0.46849075 0.566856325
0.500981987 0.499848068 0.644992888
0.699968576 0.472104967 0.617321491
0.838710666 0.516350031 0.556481421
0.18134062 0.487113535 0.693105042
0.302081227 0.508896589 0.59024626
0.452867776 0.483360857 0.597063541
0.59204787 0.505655348 0.636239409
0.76099515 0.512485802 0.625629246
0.0825300515 0.489316434 0.677807808
0.19066219 0.508139431 0.612852275
0.471698493 0.462632 0.638045311
0.60613519 0.553143501 0.584565103
0.646584868 0.514971316 0.631156743
0.793185174 0.506414533 0.572781265
0.0962530077 0.533614099 0.729240775
0.282973111 0.449224323 0.607291818
0.355079442 0.555772364 0.546720445
0.533223748 0.508366168 0.629465282
0.708919942 0.528671741 0.634704828
0.0097573027 0.517091155 0.650512993
0.186154529 0.513012886 0.681145847
0.291539073 0.528839052 0.573677421
0.463913262 0.526554585 0.625091195
0.583034039 0.579107583 0.613044083
0.626011133 0.443974406 0.610231042
0.0778604671 0.515737176 0.702705085
0.236387238 0.50593549 0.663434386
0.349317014 0.537056625 0.608317673
0.493050545 0.565396488 0.538701594
0.649534762 0.54233247 0.636620045
0.806817889 0.527319849 0.554284573
0.157594904 0.527040482 0.692289412
0.302079678 0.498331606 0.576382041
0.451001555 0.540334344 0.62856704
0.568382204 0.527817905 0.6094504
0.736941159 0.523351848 0.588748813
0.0294974353 0.554439604 0.72874999
0.182230249 0.476214379 0.711868286
0.303548545 0.524145663 0.646878302
0.479473382 0.521930993 0.598989427
0.600444734 0.489969969 0.606222212
0.767796397 0.523283482 0.559717953
0.109503441 0.537711322 0.704961121
0.218868837 0.50160718 0.641148746
0.402350456 0.539658964 0.554229021
0.536235929 0.544693768 0.62021625
0.725880027 0.50072825 0.613206267
0.012149523 0.547870338 0.671502352
0.176936269 0.517833471 0.725492775
0.314651251 0.527368009 0.556765735
0.459296972 0.525629401 0.601691902
0.609686971 0.53793174 0.607127249
0.806044936 0.529927075 0.582591474
0.115401059 0.534394026 0.714651287
0.267421484 0.521375477 0.600172281
0.402001441 0.528265238 0.561816096
0.520063221 0.563736677 0.662931085
0.667818308 0.492245346 0.647006333
-0.0364444889 0.59647125 0.660938859
0.181148082 0.5620175 0.734627604
0.296004236 0.620141208 0.582249224
0.458264023 0.575668931 0.53403908
0.559690416 0.500026166 0.597314
0.745813906 0.584694386 0.549180806
0.12968263 0.497935295 0.715358257
0.254322082 0.541606009 0.595055878
0.418541133 0.545319319 0.574936748
0.618835866 0.514409244 0.598032653
0.671517372 0.583405614 0.604953766
0.0463959426 0.558149934 0.672711015
0.198044494 0.567777336 0.658164263
0.320067346 0.587723553 0.550691664
0.514963686 0.597800314 0.563022435
0.622905493 0.58548975 0.52260083
0.756950378 0.541498303 0.513768315
0.114320695 0.577330053 0.750637054
0.279174477 0.565630615 0.576165438
0.401011348 0.574321866 0.511304259
0.592925429 0.512394607 0.592535079
0.733204544 0.583142936 0.57080847
0.0862258971 0.57478261 0.712545633
0.250200301 0.565369546 0.625039756
0.430293947 0.597480059 0.516678452
0.523748636 0.53903836 0.60056299
0.634823382 0.574374139 0.577579141
0.0147851445 0.576741397 0.697991788
0.149134323 0.593773007 0.741118789
0.301576614 0.578582287 0.537453592
0.466217369 0.595217109 0.551781833
0.628109753 0.557845652 0.529918373
0.0900031254 0.568254471 0.58172363
0.140827268 0.565008521 0.717010617
0.286664903 0.643284559 0.548645496
0.430090994 0.570193648 0.500180602
0.572375655 0.576113582 0.539505839
0.734407842 0.587422848 0.529682279
0.111747593 0.587394476 0.71072185
0.361809522 0.632300019 0.628326654
0.405820757 0.572098494 0.471284986
0.573020935 0.5654006 0.561557651
0.766392052 0.583052754 0.600187123
0.103676759 0.593424678 0.717686832
0.295132309 0.70138067 0.560637295
0.38747704 0.582663655 0.474407732
0.58789438 0.587786615 0.562084913
0.729486644 0.582872331 0.503483891
0.129696533 0.5720222 0.706661463
0.276277632 0.651959956 0.59263885
0.601636589 0.608179569 0.567952037
0.662668467 0.59085542 0.551391244
0.0712820143 0.600816131 0.705766022
0.216971949 0.589778662 0.631758988
0.541722238 0.569557607 0.445342451
0.629569829 0.592905641 0.543062866
0.045337595 0.61213851 0.714363992
0.204431221 0.615698814 0.645899177
0.340625763 0.5963732 0.446467906
0.645831466 0.593374014 0.533859253
0.0835608393 0.603637576 0.711687386
0.231858954 0.612572491 0.646358788
0.583947957 0.602665961 0.523629308
0.0459892824 0.658847868 0.589337349
0.132110268 0.574980617 0.745845675
0.3185651 0.602041721 0.446512997
0.0550418235 0.618254542 0.687837005
0.203403175 0.60927242 0.633503854
0.634767234 0.600877464 0.579551339
0.147817537 0.635294795 0.728461385
0.192326888 0.600721955 0.564789772
0.0475654155 0.697606027 0.69246608
0.243757561 0.706460178 0.624038756
0.110210963 0.569774926 0.728672385
0.224412054 0.631575942 0.606321335
0.0870298445 0.65158397 0.719237387
0.26862821 0.598936081 0.514103174
0.0452159382 0.654240251 0.725931764
0.232573375 0.61361599 0.577407598
0.13437739 0.624237537 0.679370165
0.237703264 0.701876163 0.571856201
0.101713806 0.706784785 0.639101923
0.243425444 0.647609949 0.572172105
0.101642989 0.655679643 0.675122678
0.28800112 0.667006791 0.566557705
0.135548308 0.666001916 0.69313997
0.292747676 0.718815029 0.506944835
0.136882201 0.634004474 0.701263547
0.266937524 0.663504541 0.516131938
0.142082542 0.669946074 0.673216462
0.284948736 0.658214092 0.456460863
0.140855774 0.646605968 0.645072162
0.0284679923 0.692222178 0.542476118
0.136745512 0.695528448 0.683182299
-0.0306546874 0.73751545 0.723750114
0.135381237 0.708709478 0.530182302
0.0266797747 0.689508796 0.658106685
0.199296504 0.697781682 0.638165534
0.0218712986 0.666777253 0.599224448
0.218837291 0.719252348 0.587227285
-0.0076375003 0.718362868 0.65813601
0.201243281 0.691468298 0.603311777
0.0253962334 0.684262276 0.622038186
0.212776363 0.69918859 0.610562563
0.0804511607 0.749448657 0.636335671
0.22157228 0.700157464 0.580931365
0.092633374 0.692704499 0.638792157
0.230036408 0.671369553 0.620883942
0.09259554 0.762338221 0.597510517
0.244776711 0.729111433 0.614585459
-0.0115045784 0.722715735 0.565251589
0.127856195 0.84685117 0.643575788
0.0181738194 0.70851022 0.551582813
0.170273215 0.68275243 0.618914127
0.240361035 0.72417593 0.38965857
0.124457352 0.766810298 0.567825973
0.334054887 0.653273106 0.429890752
0.118536428 0.727401316 0.611084878
0.236184239 0.728349984 0.536950767
0.0672092959 0.736672819 0.57933557
0.213912025 0.717980266 0.574326813
0.288247377 0.776888251 0.369656056
0.161213756 0.762718141 0.630948365
0.384468108 0.790428936 0.444184095
0.0956213847 0.743640363 0.58028245
0.281558812 0.764099836 0.50665915
0.00136274879 0.723388433 0.466876358
0.158341363 0.737580657 0.586694658
0.341529578 0.745122969 0.397641391
0.109071627 0.770744562 0.612133622
0.289408296 0.754432082 0.441997439
0.11790292 0.733159482 0.528867364
0.236017868 0.762791157 0.541003883
0.416915566 0.733656228 0.353943646
0.140570223 0.830024421 0.558764338
0.366828859 0.807227612 0.419258416
0.16432336 0.731568635 0.54501909
0.349449724 0.699794888 0.355308145
0.222068667 0.806547105 0.562406659
0.353265971 0.722928345 0.390597552
0.259307474 0.782516241 0.435431302
0.375102311 0.773086846 0.391221881
0.167283967 0.772444069 0.323210716
0.355932504 0.768010437 0.400562286
0.140171602 0.782092273 0.344820052
0.350408763 0.789148808 0.391846806
0.385292768 0.772350788 0.337061793
0.308869094 0.816783965 0.421532482
0.437607557 0.751889527 0.296620101
0.272730172 0.725760579 0.41909793
0.397095263 0.768799961 0.363567829
0.138975248 0.795847356 0.325865418
0.324524581 0.806524038 0.393726498
0.467808396 0.814891219 0.346424818
0.278952807 0.759837627 0.416502357
0.417021424 0.810647726 0.374484211
0.178573668 0.81730175 0.310439497
0.355504364 0.800659835 0.36310029
0.525896072 0.794371963 0.247086048
0.299581349 0.786421597 0.426076055
0.419873804 0.811266184 0.25129059
0.118289642 0.79141283 0.299546391
0.35195145 0.813792169 0.357500941
0.514464617 0.80578351 0.29757458
0.312877417 0.823887765 0.401204854
0.480998456 0.837898493 0.347260654
0.184195176 0.835736334 0.262185842
0.398078173 0.82635057 0.336263716
0.1254289 0.843375444 0.24857153
0.343916595 0.830241919 0.396383494
0.508524656 0.844845235 0.317290246
0.30198434 0.866420031 0.348678619
0.414384454 0.812473416 0.321682245
0.11708083 0.891343772 0.213161826
0.352548718 0.853497386 0.378661424
0.559137225 0.873959959 0.288140178
0.232294202 0.964415908 0.419698298
0.444030225 0.865782499 0.30401206
0.146166727 0.853583574 0.214583755
0.413646609 0.812315464 0.325443834
0.593450427 0.846026659 0.184778452
0.388105243 0.837409437 0.383827746
0.506885111 0.849424183 0.268022567
0.343637705 0.801235557 0.380588233
0.48395735 0.892705858 0.280230522
0.293869555 0.856962144 0.353434801
0.460906148 0.911123097 0.275675744
0.0747026429 0.899715781 0.162459433
0.477181673 0.888623953 0.304451346
0.168434396 0.858399093 0.102621727
0.465832978 0.844151199 0.34852612
0.151794687 0.810446441 0.0697196126
0.448929727 0.913601875 0.26026696
0.0642046183 0.918532848 0.137405068
0.403809339 0.852923691 0.314001501
0.107323773 0.86188823 0.145652026
0.408821255 0.893130124 0.331397742
0.184089065 0.848457038 0.0221688859
0.375676066 0.896410108 0.34946385
0.58473444 0.897745907 0.195042685
0.363532305 0.874776781 0.330602944
0.540020823 0.900131404 0.197891802
0.439596921 0.908126295 0.326616704
0.0975975096 0.915480435 0.0654697046
0.433843344 0.916290581 0.324547917
0.116945677 0.918339074 0.0617039055
0.448506653 0.916100085 0.307590812
0.14523904 0.894337237 0.0398091637
0.468198508 0.990221262 0.239172727
0.184256762 0.924419045 0.00593821984
0.51376611 0.920054853 0.214500338
0.461040646 0.931008756 0.252443016
0.418258637 0.929692447 0.326253563
0.172428459 0.927797258 -0.00191639713
0.478315622 1.01685464 0.29894951
0.428360969 1.02773738 0.25559026
0.482640654 0.965892851 0.29155919
0.464117169 0.962225914 0.262340099
