ply
format ascii 1.0
comment Written with hapPLY (https://github.com/nmwsharp/happly)
element vertex 894
property float x
property float y
property float z
end_header
0.25914079 0.0133570712 0.556326628
0.481356412 0.0236054696 0.741446316
0.264338315 0.0188609567 0.574682832
0.352500975 0.00273529813 0.666530192
0.47295785 0.00799193978 0.740738332
0.162270993 0.0107213408 0.488780469
0.302995205 0.00842284691 0.581676543
0.372819722 0.00931673218 0.712639511
0.534686446 0.0309307091 0.692005098
0.146422371 0.0211528279 0.489121675
0.281719923 0.0147498511 0.568061173
0.367100328 0.0514608435 0.646561861
0.530257642 0.00967934914 0.750128448
0.15412876 0.00248932373 0.437163174
0.263423234 0.0370335244 0.571626902
0.371719718 0.0908315331 0.659072399
0.523879945 0.0376231708 0.752697587
0.68168056 0.066214174 0.701227665
0.19148536 0.00438687624 0.491536707
0.292534292 0.012599119 0.605356276
0.410029531 0.0793735459 0.694462657
0.512974679 0.01684401 0.713001966
0.761960208 0.002936929 0.710838974
0.245527536 0.0618359223 0.618529379
0.308630913 0.041817192 0.659727335
0.477414638 0.0449679121 0.744009972
0.589354694 0.0638004765 0.789305627
0.251787901 0.0463208035 0.292182207
0.201842681 0.0607632697 0.588086247
0.355017155 0.0443996228 0.674832761
0.488163918 0.0142348493 0.719669163
0.601683676 0.037100479 0.790160835
0.258542925 0.023140898 0.284097314
0.199838683 0.0407718606 0.547787309
0.287960142 0.0569321215 0.689009786
0.470508367 0.042560827 0.722596586
0.611021042 -0.00789482147 0.740764976
0.26467225 0.0248362776 0.260457277
0.202551484 0.0517857634 0.528547764
0.323387176 0.0267340411 0.684052765
0.475983977 0.0658416301 0.707825601
0.561630666 0.00236675376 0.713790417
0.808614492 -0.00183988037 0.719492733
0.225847661 0.105130911 0.541638315
0.29695186 0.0606872216 0.57907182
0.410911202 0.0310893338 0.716053486
0.545205235 0.0489157028 0.768411458
0.759418726 0.0522509851 0.767896235
0.203632668 0.0548054315 0.517424941
0.229381025 0.0801394358 0.67152971
0.418397605 0.0799500272 0.663690686
0.565311134 0.0249541793 0.774148166
0.741533637 0.0384075679 0.769183159
0.193632171 0.0726681873 0.50137639
0.245071724 0.0456304587 0.586729705
0.431557477 0.0713339597 0.686035573
0.536733687 0.0533653907 0.760847032
0.718774676 0.0616532192 0.657089055
0.179309011 0.0448209643 0.429642856
0.283040971 0.117254004 0.567254424
0.401048481 0.0702296197 0.688596725
0.466921866 0.0529121757 0.699291766
0.625078499 0.0513438135 0.804285228
0.250599563 0.044972714 0.256663144
0.211303011 0.0752034858 0.543546617
0.333726525 0.0763096809 0.649904072
0.386455387 0.0824774504 0.800748169
0.58392781 0.107293978 0.80406189
0.771704078 0.0196733288 0.773405075
0.181728035 0.0553169362 0.46965754
0.340122849 0.111839555 0.560731113
0.438699096 0.0440120175 0.675057054
0.55033803 0.0679543242 0.773883402
0.714573324 0.0548959821 0.783222318
0.267842889 0.0105508156 0.303468794
0.291563779 0.0694695637 0.546998918
0.380346 0.0692382157 0.672528148
0.490290314 0.0373842381 0.749894142
0.61933583 0.0470325574 0.730520248
0.765850186 0.0494620688 0.801070273
0.252503872 0.0751262456 0.509208322
0.319184124 0.0248428714 0.658046186
0.497784704 0.12682578 0.748387277
0.569032431 0.0601054579 0.831118584
0.762565017 0.0768243149 0.804282725
0.301057488 0.0142533546 0.323589116
0.332918555 0.100461632 0.609350264
0.43121022 0.0437644944 0.744280457
0.553778827 0.0622739568 0.817224145
0.710791945 0.0578014143 0.76257199
0.283136487 0.0537007935 0.262206137
0.331426024 0.0864426196 0.489589334
0.370741755 0.0712484196 0.667059004
0.493731946 0.103334337 0.782471657
0.666823328 0.0873092115 0.750718892
0.777204454 0.0166966952 0.806941628
0.259682685 0.0893498138 0.507897913
0.349618524 0.0786673352 0.693597972
0.438252628 0.14981775 0.762274683
0.586555004 0.0829658359 0.778179049
0.765798748 0.0883160159 0.80294615
0.197678611 0.0778356865 0.411820024
0.347045183 0.0885546356 0.578065634
0.436440617 0.140595362 0.719470918
0.563331008 0.095363833 0.789337218
0.737328291 0.0826443285 0.78856957
0.340976685 0.104647718 0.319182158
0.310275704 0.167644829 0.489284992
0.414272666 0.0983814448 0.710877657
0.500326097 0.0493485481 0.715816319
0.726530731 0.0801831484 0.769010484
0.879525065 0.0830054209 0.792841017
0.320909321 0.100743666 0.598900974
0.298144519 0.0317385346 0.697948933
0.503944576 0.0794205889 0.795685351
0.678601027 0.0976145864 0.792997122
0.799742937 0.086050503 0.848058999
0.251260966 0.120993659 0.54788059
0.354046553 0.116812468 0.675719678
0.47097525 0.153413385 0.798413098
0.580397904 0.113478348 0.84659493
0.807116568 0.0959502012 0.845376849
0.2495161 0.0741460696 0.499466121
0.357185215 0.0804156214 0.639356256
0.448331475 0.115775384 0.771149755
0.598828256 0.119259566 0.805791914
0.700407982 0.148324341 0.770632982
0.239856794 0.100920931 0.482380509
0.389026582 0.10362874 0.589832544
0.442622721 0.122873597 0.768575668
0.583457589 0.118235379 0.803482533
0.797039092 0.17938973 0.731849492
0.274304003 0.120562948 0.453507721
0.362171382 0.114939094 0.566305578
0.416459411 0.0685763136 0.797914445
0.543848276 0.117475644 0.787953854
0.738526046 0.127195746 0.769173086
0.329116732 0.0940542668 0.299657345
0.335469663 0.124714918 0.559689701
0.373043209 0.10057538 0.738007009
0.529554605 0.128013417 0.802770913
0.7036134 0.116873406 0.813380063
0.841641665 0.141968027 0.831953764
0.305159807 0.126670837 0.557512701
0.378224015 0.147308961 0.727702498
0.421041697 0.185859874 0.830978692
0.659360766 0.127201766 0.802806199
0.783002973 0.10662327 0.825288713
0.171114877 0.16974245 0.545002937
0.408545703 0.192770272 0.627850592
0.417112082 0.152411729 0.809987366
0.623794496 0.133139759 0.809625328
0.788951337 0.124508761 0.824557722
0.298276603 0.126405463 0.491395473
0.365823686 0.145583645 0.599608719
0.491017193 0.164188311 0.775471091
0.594846904 0.126881033 0.794544697
0.720755696 0.236668035 0.861134112
0.281166762 0.0801815242 0.441148043
0.413560063 0.122553617 0.571990192
0.409289926 0.151846483 0.756962001
0.542458177 0.154341564 0.807602763
0.717989683 0.133873418 0.810121894
0.338088125 0.0971011519 0.410164952
0.28319937 0.150910646 0.605145693
0.34597522 0.176562995 0.736647666
0.4951832 0.170885488 0.71998173
0.681734681 0.136960819 0.805428863
0.865270853 0.129816204 0.843987048
0.272422612 0.158133432 0.542258263
0.367954671 0.124131426 0.601430535
0.464268178 0.159873292 0.79863131
0.631924689 0.116331667 0.795228183
0.814190567 0.157633796 0.820769846
0.311957836 0.175282642 0.433828592
0.335080266 0.139038637 0.557679653
0.409530789 0.197976172 0.726520717
0.454211146 0.209744334 0.796106935
0.724352539 0.141194597 0.825705826
0.897230029 0.145164475 0.811002791
0.264075071 0.145382106 0.54356879
0.368768185 0.102124251 0.688697875
0.4889175 0.0938467309 0.755531728
0.618686855 0.162249938 0.81095922
0.720154822 0.207236096 0.887240648
0.264381468 0.177879751 0.39670977
0.297558665 0.117924966 0.587673426
0.400093198 0.187472418 0.696341097
0.547297776 0.154362112 0.798083186
0.800406575 0.245485872 0.882341743
0.832100987 0.113711737 0.848024666
0.260043234 0.168115243 0.47319749
0.368463367 0.173318803 0.576903462
0.386352867 0.169221625 0.765769541
0.586073339 0.180235058 0.833933592
0.781253755 0.144801259 0.760026038
0.973116159 0.12189927 0.838001251
0.256836891 0.151242465 0.567053676
0.376394302 0.17376624 0.645252228
0.429452181 0.184209958 0.785794914
0.587450743 0.150915697 0.803904116
0.75651294 0.154597148 0.843999505
0.279242128 0.180459768 0.360193729
0.264596552 0.186394393 0.537533283
0.353946954 0.124589831 0.707699656
0.42134279 0.075887911 0.799060702
0.631736934 0.153080299 0.79825604
0.765018523 0.145020097 0.822049558
0.230847225 0.159909546 0.386374593
0.273580432 0.182696819 0.497918278
0.341133296 0.212807819 0.678564012
0.494290709 0.2075077 0.774328053
0.601889968 0.216308147 0.855837703
0.797839761 0.165461481 0.822338462
0.201882541 0.185193449 0.402322233
0.208489239 0.158921406 0.501124561
0.365369499 0.229478478 0.678145468
0.465584755 0.196153298 0.791056812
0.604046285 0.243750647 0.832968414
0.863275409 0.166227669 0.78642112
0.186854467 0.188736632 0.40977338
0.349578947 0.206734449 0.595247567
0.378626347 0.157822505 0.692804277
0.510549307 0.158463955 0.702229381
0.625398219 0.18331334 0.813831568
0.776519001 0.136412874 0.78839469
0.162754685 0.270217031 0.408308059
0.275506765 0.198215112 0.545769691
0.349832177 0.199227259 0.701695263
0.469869614 0.203989834 0.83293736
0.622546732 0.229955912 0.839478135
0.809668362 0.186378285 0.801740468
0.150582179 0.234560281 0.433222979
0.218861684 0.232091174 0.545199275
0.367697984 0.196662799 0.665768862
0.449539036 0.160417482 0.805999935
0.657381177 0.19320941 0.837331355
0.797081828 0.165978834 0.766204476
0.221626461 0.178900063 0.386392057
0.298916608 0.166365802 0.482201129
0.312146187 0.218914896 0.722029746
0.455617338 0.213901699 0.786550701
0.581374168 0.247541055 0.786610782
0.810084939 0.189808533 0.77925837
0.171364874 0.21674338 0.404924989
0.235716432 0.231956244 0.51822412
0.319398344 0.238134488 0.665734649
0.500888348 0.241347581 0.773863852
0.613756895 0.207165226 0.818573415
0.800705671 0.215045959 0.768652141
0.165413395 0.224139541 0.427418619
0.132284954 0.326673836 0.571576536
0.406307757 0.229038611 0.698050082
0.450243801 0.220569029 0.790614009
0.635535896 0.150252447 0.848833561
0.812103689 0.20530346 0.758693635
0.179162368 0.197758004 0.412367642
0.209147349 0.21488817 0.52279067
0.34162271 0.234957844 0.648615181
0.468242496 0.226389557 0.78422606
0.582190335 0.202989489 0.832333803
0.792586803 0.212119281 0.816816866
0.144946337 0.236587748 0.394468993
0.214033738 0.236242905 0.549246013
0.353939563 0.229004577 0.609098375
0.420773298 0.226156533 0.814060092
0.579297483 0.208177075 0.822536886
0.708640099 0.166546479 0.778127611
0.12385761 0.183328688 0.265616
0.211587787 0.23338601 0.546844423
0.338297874 0.230961919 0.577154934
0.363989741 0.234877914 0.763936162
0.462472916 0.205376953 0.827561796
0.700698256 0.255495548 0.781126916
0.893494248 0.211202368 0.799897432
0.207568318 0.182273984 0.504987001
0.299063146 0.237705708 0.568702757
0.342330843 0.232716382 0.717175066
0.509190023 0.25115478 0.804228127
0.697467744 0.279136777 0.834682047
0.85425663 0.220241666 0.788691163
0.166571468 0.242337301 0.449908912
0.269279987 0.235942349 0.548706889
0.431825221 0.266102612 0.694040835
0.445415348 0.243463233 0.782902181
0.577863753 0.311323255 0.831665218
0.824594736 0.247859374 0.807989359
0.0917241126 0.211590096 0.413994223
0.2479579 0.19050242 0.541271627
0.318518728 0.25774312 0.697525263
0.429077476 0.20403403 0.745034635
0.52432549 0.188923046 0.798190117
0.813722491 0.265227735 0.772679567
0.119622491 0.243662924 0.354705751
0.236429259 0.236447304 0.537400544
0.317332 0.309071928 0.59371531
0.364452869 0.268007725 0.76301986
0.55813086 0.256442696 0.850914657
0.719159484 0.242655918 0.775977075
0.130851343 0.251810074 0.380052537
0.242319122 0.228822812 0.514475822
0.343175113 0.25481087 0.588816464
0.403169304 0.261760265 0.761720359
0.495534658 0.195233166 0.741811395
0.698791623 0.226326838 0.876588345
0.137478679 0.252514422 0.39696762
0.194637582 0.285789877 0.524452209
0.343267351 0.243589088 0.626071692
0.413512051 0.230545968 0.776095629
0.514459729 0.288426727 0.781650603
0.742617369 0.258453965 0.799091697
0.140413105 0.280248195 0.402203232
0.268678367 0.303286165 0.516902089
0.282656789 0.294385284 0.729053974
0.463171959 0.26505214 0.779157639
0.554909706 0.295936286 0.865870893
0.80068022 0.253440142 0.78235805
0.170561373 0.247447595 0.475327671
0.310844213 0.257806599 0.573979557
0.347216696 0.211920962 0.683895648
0.455309808 0.317130357 0.782104671
0.621434569 0.234727398 0.819016278
0.145415336 0.279276788 0.343280017
0.189044356 0.273176163 0.454877853
0.301504254 0.258658826 0.531371713
0.310419977 0.250366122 0.78782481
0.443103492 0.313081503 0.802592814
0.717614472 0.351239443 0.803839207
0.13985984 0.252818286 0.371113867
0.215915665 0.28764829 0.524917305
0.345210433 0.242216647 0.590432286
0.422936261 0.279755056 0.712920547
0.561982989 0.258081853 0.815060973
0.713122964 0.295039564 0.826788723
0.0529521033 0.311411589 0.421024144
0.16686286 0.285304397 0.560388148
0.393865228 0.281406015 0.63027662
0.420252413 0.298927516 0.754724264
0.54779917 0.283195317 0.825251162
0.774203002 0.235344201 0.793027639
0.137412637 0.274520427 0.448552966
0.216449067 0.279936433 0.517939448
0.309136719 0.254048735 0.651032865
0.421058744 0.294936687 0.78715682
0.602307618 0.266891897 0.81657207
0.777791858 0.299551308 0.814008653
0.136287391 0.301802546 0.454385102
0.244242445 0.371906608 0.491564006
0.308635503 0.254510134 0.612688661
0.351646602 0.329605728 0.820670962
0.595046937 0.301265657 0.84932375
0.780790031 0.288559586 0.784061432
0.137173563 0.295216501 0.469808519
0.248340189 0.31588611 0.56212455
0.393933415 0.282818139 0.679821849
0.473616004 0.299818367 0.804056227
0.59755075 0.284143448 0.838249087
0.838245511 0.300995767 0.767923951
0.134363964 0.299853086 0.47075811
0.29409194 0.272948861 0.589933336
0.334371924 0.290838748 0.710080326
0.451180577 0.295579314 0.758951187
0.582127392 0.27531451 0.883787453
0.134014115 0.269960076 0.285584629
0.124412112 0.291948974 0.483167142
0.28341648 0.310717404 0.56244415
0.337896228 0.337285459 0.661538243
0.438301921 0.364374578 0.753798723
0.630802035 0.319999278 0.824052155
0.0419850945 0.376595914 0.376927167
0.210388675 0.361227214 0.524593472
0.302324742 0.302902281 0.572394013
0.348390549 0.327887803 0.834929943
0.466436982 0.30982089 0.806756079
0.609034836 0.336985558 0.81768924
0.0988930464 0.298344374 0.34844467
0.178159624 0.311319709 0.509620667
0.269182444 0.336794943 0.573812902
0.349072784 0.349672496 0.728783309
0.525818765 0.258217812 0.8741979
0.662681818 0.309473097 0.824166834
0.098643139 0.298063993 0.429395407
0.181199133 0.183912292 0.539975643
0.299864799 0.303542227 0.519099951
0.354743689 0.316089332 0.723230004
0.540744305 0.334481776 0.799307764
0.687164366 0.292197406 0.839072227
0.095399648 0.305600435 0.486851484
0.199151054 0.340338111 0.516568601
0.290212989 0.309806675 0.585761428
0.435101628 0.331317186 0.802785099
0.570980787 0.328167945 0.903419018
0.719932079 0.377160758 0.741993487
0.109328866 0.329108953 0.416066766
0.145604357 0.336114585 0.563897848
0.334371448 0.353066891 0.610303819
0.401098341 0.329438955 0.755108356
0.549074054 0.324191839 0.807084858
0.741371036 0.33140251 0.837968946
0.118682586 0.332738996 0.418900907
0.234439224 0.360449076 0.506107569
0.335621804 0.333058268 0.617231965
0.409662992 0.345104307 0.756510556
0.578187406 0.351812124 0.782446146
0.753612578 0.339528739 0.819235742
0.0981078073 0.368308157 0.454270631
0.217457086 0.33893311 0.539454341
0.306438118 0.336688042 0.632208407
0.419054896 0.339299858 0.7643103
0.548763216 0.334388465 0.819672823
0.803644121 0.425739229 0.760983348
0.135683909 0.374251813 0.31087786
0.227194577 0.345899045 0.545708954
0.361658424 0.351948708 0.613069832
0.43986845 0.368500501 0.778664529
0.540930271 0.390763462 0.853950262
0.731519401 0.332036078 0.811584711
0.108098246 0.349933892 0.44882834
0.223417968 0.338293999 0.539057672
0.394096851 0.37281996 0.582788646
0.41914615 0.339600831 0.770785511
0.566078186 0.340447962 0.81289649
0.78920114 0.42627722 0.873759747
0.103982769 0.338198334 0.425052613
0.244757101 0.326066971 0.508106828
0.344458759 0.349000812 0.598950028
0.397082537 0.305778146 0.812248647
0.565172911 0.34731105 0.817478061
0.739893675 0.325143129 0.792523026
0.176552609 0.380036592 0.400094956
0.281931788 0.265565842 0.536371112
0.382181168 0.3570081 0.62051487
0.422161281 0.360660642 0.754409015
0.582446635 0.402183533 0.798249602
0.751386166 0.353701651 0.804963112
0.106842428 0.363082975 0.430955678
0.194128603 0.298449159 0.591981649
0.332545549 0.358092517 0.615544021
0.450809091 0.340301067 0.862149715
0.572551787 0.346132934 0.786787808
0.759571731 0.332945943 0.828519166
0.0886998102 0.354216218 0.373494714
0.287549615 0.341876328 0.566611469
0.31293124 0.362962931 0.625754952
0.408563644 0.371585071 0.789353013
0.58855623 0.360216945 0.828403354
0.749229789 0.356804907 0.798248768
0.119230591 0.38934806 0.432283074
0.207034335 0.395117402 0.550073862
0.333795339 0.368760705 0.621164262
0.428007513 0.394827902 0.765281975
0.519104719 0.355513424 0.706293702
0.739067018 0.360524178 0.801120043
0.096233435 0.394247353 0.434030592
0.189417735 0.353938997 0.548803568
0.379984409 0.377060235 0.594503582
0.418941975 0.385640621 0.783383071
0.520267069 0.376890838 0.814120054
0.755768239 0.380960584 0.799728274
0.182694227 0.308679283 0.435139358
0.204667658 0.383124739 0.529305696
0.339374512 0.373539478 0.611600399
0.484034181 0.340048164 0.795966744
0.559229851 0.35609743 0.808789551
0.80224967 0.362787962 0.832242131
0.110890597 0.390268683 0.428680867
0.22651878 0.406778514 0.526392758
0.349046707 0.383263767 0.618453741
0.427360862 0.407257199 0.796592057
0.553092301 0.408930808 0.797658563
0.779414654 0.391205311 0.781512082
0.106673881 0.401722908 0.438508898
0.304505795 0.354298562 0.562348485
0.351345897 0.377669424 0.620145321
0.421381503 0.266930461 0.687211514
0.579458833 0.389588296 0.802776456
0.838289559 0.397259533 0.789298534
0.137037337 0.365604103 0.468231857
0.239053488 0.393824697 0.541115105
0.358147264 0.389053017 0.625074327
0.446155459 0.393288851 0.752263069
0.550575078 0.399721056 0.785097659
0.777742922 0.35623911 0.818138838
0.127395734 0.395178944 0.447789133
0.284396589 0.390881121 0.568303347
0.312742442 0.339846879 0.533617973
0.452856332 0.310721308 0.789686561
0.585099339 0.401471853 0.809241354
0.792690098 0.290213495 0.732962251
0.144990146 0.343981802 0.442712009
0.247543052 0.394089133 0.62316674
0.351237923 0.433371276 0.668576479
0.467505604 0.382259846 0.76257956
0.541224897 0.378627956 0.814790785
0.815513074 0.407416075 0.747605026
0.152585253 0.39925611 0.466424286
0.19006452 0.39567095 0.525160193
0.357726127 0.442399532 0.658354998
0.47856003 0.406030267 0.765880406
0.596919358 0.377807289 0.844811618
0.917835414 0.395988584 0.756826878
0.167356223 0.364317149 0.469281614
0.252794147 0.437670618 0.548605561
0.358150691 0.393178433 0.596799135
0.489129454 0.392356038 0.702375531
0.610871673 0.403763771 0.802806973
0.105798393 0.413510501 0.270185351
0.149807289 0.416092753 0.464093894
0.277832687 0.41744709 0.53691256
0.359221071 0.511524796 0.632811904
0.535432458 0.45673871 0.797911167
0.647506535 0.404919863 0.791052222
0.0930956528 0.41759038 0.28893885
0.148306027 0.420203328 0.393091559
0.311038733 0.37087822 0.576734006
0.376396239 0.388973475 0.623938084
0.501695514 0.45048368 0.736916542
0.64017421 0.413486212 0.800712228
0.111177474 0.417779028 0.307741314
0.181156248 0.419911861 0.503489137
0.298071533 0.425516248 0.560600758
0.393880695 0.47839579 0.588620782
0.517628729 0.410306185 0.746129453
0.711403012 0.434401512 0.847191989
0.114406854 0.4434641 0.353509247
0.188562989 0.47642526 0.498552144
0.315853089 0.419811457 0.520650566
0.452220082 0.431432188 0.674407482
0.555791736 0.457310081 0.728953004
0.731132209 0.377081335 0.759834349
0.119768739 0.471181899 0.402926445
0.24070318 0.491058946 0.487026542
0.282153785 0.418210715 0.601974487
0.423444688 0.42629981 0.676291943
0.534148991 0.445219934 0.775931716
0.616022348 0.409346819 0.739012957
0.106739305 0.465071201 0.418709844
0.238897711 0.378582209 0.546627223
0.335463911 0.435420573 0.60586673
0.529607475 0.45426783 0.710887074
0.597784519 0.480180562 0.740728736
0.740164995 0.397098899 0.752298713
0.122773655 0.436657041 0.409476608
0.225118041 0.443836331 0.501653671
0.377355218 0.434529722 0.609237075
0.49628517 0.460437626 0.728743017
0.60174346 0.446737945 0.792355597
0.113873824 0.452269942 0.268309504
0.143979251 0.372460693 0.362847
0.274472862 0.457564205 0.542684019
0.426541746 0.343981117 0.600207746
0.516502976 0.454783469 0.722748518
0.646167755 0.424760789 0.776980698
0.134495646 0.442405194 0.341129512
0.159082666 0.436163455 0.46681717
0.327101648 0.455240548 0.611084461
0.421786696 0.435327351 0.683651209
0.549173474 0.450825244 0.738978863
0.706211388 0.401579618 0.734767199
0.109851293 0.47184673 0.411298513
0.222487003 0.466981649 0.532313168
0.358671904 0.418327153 0.59994328
0.458737701 0.462905675 0.681009531
0.633351207 0.403984845 0.768180192
0.752820253 0.443227947 0.781651795
0.15797241 0.461761147 0.447523028
0.292460293 0.513926327 0.529861212
0.403611749 0.490616798 0.624920905
0.506609619 0.45737344 0.731153667
0.66097182 0.493891597 0.740088642
0.120796107 0.464012653 0.34416613
0.196470648 0.448267639 0.451526791
0.337232769 0.483532399 0.557392359
0.434612125 0.460336626 0.660829127
0.577554643 0.510900974 0.789633214
0.691353977 0.457094908 0.767632902
0.111513279 0.424670041 0.355888128
0.247603998 0.486788779 0.50614655
0.357187301 0.465435892 0.581222355
0.459360242 0.482558727 0.703222096
0.617150128 0.461353928 0.687256277
0.127247587 0.464739203 0.278238535
0.183449998 0.47385785 0.456081212
0.300517231 0.472281665 0.536225259
0.408763319 0.445606649 0.642772853
0.516598105 0.463393867 0.71871537
0.68066293 0.524256468 0.773822725
0.102076098 0.437888414 0.47064808
0.199986041 0.476355582 0.510840952
0.34209767 0.48915875 0.583583653
0.421186656 0.479118556 0.623447835
0.570109069 0.469307423 0.73338002
0.754661441 0.476578146 0.749198318
0.173212081 0.483080029 0.454771549
0.252708346 0.490373671 0.535181344
0.37109822 0.537462711 0.557527423
0.486438841 0.513727725 0.734816134
0.651924849 0.468360335 0.75219804
0.0775107145 0.465826213 0.429256529
0.141989067 0.54649657 0.493992835
0.286879957 0.476441115 0.617923379
0.436489969 0.483809024 0.658525288
0.556514919 0.479761481 0.735173762
0.701134741 0.474500716 0.745615005
0.122205064 0.454684883 0.509917319
0.337042838 0.475119621 0.503890276
0.415346801 0.507616699 0.629750848
0.524437428 0.442371488 0.698915064
0.620266378 0.485755086 0.750865698
0.0502970591 0.500523865 0.363358766
0.228738621 0.565852046 0.495308578
0.283924967 0.440291792 0.508527994
0.438327402 0.494328558 0.670611858
0.566660464 0.380053014 0.710311294
0.692612767 0.470740676 0.776881695
0.0275499132 0.473466456 0.495284945
0.254671514 0.490305424 0.52339679
0.406987906 0.4888376 0.487362325
0.498308837 0.514574051 0.635754347
0.584541023 0.496149629 0.729851902
0.77243495 0.444730163 0.686071217
0.0770018995 0.486188412 0.472703785
0.284393162 0.504674971 0.497760177
0.356266171 0.593968451 0.592121542
0.469660193 0.494005233 0.713381648
0.61918509 0.490675807 0.784087896
0.016648287 0.464802921 0.408574015
0.226286337 0.538021028 0.481979787
0.331152022 0.51206851 0.525593877
0.456221133 0.550942779 0.599268734
0.567077637 0.518381298 0.704476714
0.695437372 0.505633771 0.755054533
0.0399431475 0.540968359 0.482308745
0.293921888 0.469430983 0.494206309
0.318521887 0.574353397 0.500593305
0.488688082 0.473997712 0.654307902
0.615914464 0.525469124 0.734109998
-0.0111139575 0.509737909 0.381410003
0.105601646 0.52262789 0.511511147
0.334067106 0.54270792 0.502299845
0.401433229 0.515480578 0.576260626
0.508547366 0.515669346 0.698610604
0.657770932 0.510001481 0.732420325
0.032192044 0.540439785 0.452175945
0.310938984 0.509708762 0.466831028
0.328546762 0.503834188 0.502944946
0.441681355 0.495828152 0.612163007
0.603065073 0.508358657 0.72138989
0.73505342 0.529567182 0.733981252
0.0217775106 0.502859712 0.480802506
0.295822382 0.537195563 0.497144222
0.410162836 0.533532381 0.519544244
0.471092671 0.541791618 0.726541162
0.607201219 0.523697734 0.710612237
0.0134058148 0.540053487 0.431362152
0.111146145 0.681266546 0.454292268
0.306573808 0.535010159 0.521787882
0.428958923 0.502173126 0.608275712
0.537419379 0.517979145 0.706852496
0.696804285 0.526958406 0.722549319
0.04603111 0.542987168 0.482152313
0.223640755 0.53615272 0.494162291
0.322883129 0.546212971 0.513478816
0.475399017 0.544707894 0.661042571
0.586315155 0.539899766 0.716624677
-0.0165273082 0.561703861 0.407099485
0.140751198 0.547012687 0.523044288
0.300962299 0.525531471 0.477008343
0.394567788 0.580896378 0.67932564
0.515109062 0.552601099 0.704498172
0.681253314 0.566117823 0.751225114
0.0842167437 0.557436883 0.485208839
0.2148626 0.537505805 0.507990122
0.335644633 0.575065136 0.544502795
0.489976287 0.525688648 0.608855605
0.627244174 0.564827085 0.698481679
-0.0269463584 0.537335932 0.366345376
0.0942832381 0.566208184 0.521416128
0.327822506 0.547485471 0.473193139
0.419100404 0.562133014 0.56680882
0.497980773 0.576484382 0.72670579
0.697442055 0.565675259 0.701498687
0.0584122799 0.565700173 0.481240153
0.2988846 0.553717911 0.458272308
0.43377763 0.53746146 0.498676807
0.481385678 0.546610355 0.671268046
0.566803873 0.551366389 0.777353644
-0.0319133066 0.612157702 0.441342503
0.117874399 0.585267067 0.49961108
0.31361708 0.525936067 0.440667421
0.440328002 0.594559312 0.575888872
0.527722538 0.589875996 0.690143943
0.745100677 0.542905092 0.656827271
0.0579334982 0.570539355 0.519582033
0.189184815 0.517799139 0.592436194
0.431914657 0.554967046 0.487131804
0.483763248 0.571106613 0.647282541
0.66795367 0.545674741 0.66826576
0.0357813016 0.614006758 0.461497128
0.151863694 0.557031691 0.517168283
0.376564652 0.584970534 0.483532012
0.460391283 0.53013742 0.598778605
0.595603049 0.560621262 0.691081345
0.0193018019 0.59325552 0.456570029
0.174648911 0.574281454 0.524685085
0.341722727 0.570643365 0.431384474
0.473328769 0.578864515 0.525269032
0.515528679 0.538971126 0.630844891
0.0470612198 0.625785291 0.298707485
0.0866226405 0.591715991 0.496664524
0.286873728 0.566529572 0.471777856
0.409433424 0.608103573 0.484912455
0.559554219 0.581175089 0.59757483
0.700942934 0.57493186 0.653747737
0.0683881193 0.59245187 0.502725065
0.221563607 0.586238563 0.442638278
0.458536506 0.643511415 0.462365836
0.460608214 0.615567267 0.498217791
0.624762654 0.583596051 0.708182395
0.0122940866 0.621689916 0.497332931
0.213729903 0.594254971 0.562435567
0.448159486 0.540818036 0.399478406
0.52752918 0.586030424 0.638103008
0.645277083 0.582982659 0.707958519
0.156591281 0.518287599 0.494532555
0.277619153 0.58686614 0.471903265
0.436926425 0.689811289 0.529206455
0.609348238 0.60854131 0.679258227
0.0611252077 0.557264209 0.470861197
0.223592937 0.582942009 0.492586613
0.522076249 0.570825696 0.519579709
0.584178507 0.608568251 0.651496947
0.055233743 0.638330817 0.463058025
0.190853223 0.649595559 0.503200531
0.438841105 0.620761991 0.388217181
0.618807197 0.596247554 0.63698256
0.0363647565 0.607274413 0.474764794
0.281336814 0.542083502 0.509317636
0.557272077 0.620868504 0.592265785
0.0050433171 0.631810963 0.410643011
0.139662474 0.616828561 0.485970318
0.392252475 0.590037942 0.406157464
0.0311056469 0.598167419 0.424236506
0.172772288 0.624478281 0.488473624
0.574884951 0.62416923 0.61312449
0.067522496 0.603228271 0.476558477
0.268433362 0.623170733 0.464845657
0.0969913006 0.594789147 0.42598027
0.191915974 0.621691287 0.460786104
0.0138100265 0.619909108 0.47811994
0.213013694 0.632455766 0.465595543
0.0894768387 0.663254082 0.506239176
0.233420029 0.641443193 0.516322076
-0.0389019735 0.624633014 0.505095959
0.222415134 0.642123938 0.464384496
0.0494759083 0.659993768 0.480062962
0.209165469 0.668552518 0.455071986
0.0390737727 0.625594139 0.433612943
0.245603278 0.669382989 0.460939169
0.00591157423 0.736001253 0.394645274
0.262054592 0.645457089 0.45622918
0.0495254211 0.679929972 0.51698488
0.26857686 0.663200676 0.43337357
0.0785262287 0.667287529 0.480653822
0.309651762 0.620685279 0.444825441
0.196450368 0.628730178 0.522239089
0.331524462 0.654415786 0.351793885
0.115705617 0.675420403 0.479279548
0.0406754315 0.629435837 0.291697323
0.104479343 0.671530843 0.489596516
-0.010483698 0.657329142 0.424152464
0.154578328 0.702254832 0.472593009
0.014804556 0.762875855 0.401909143
0.114587158 0.680050611 0.53344512
0.0966496393 0.670121372 0.465452462
0.154547781 0.674039841 0.455825001
0.0678481311 0.700925708 0.397257745
0.224933192 0.643590987 0.399804503
0.122682489 0.686141431 0.414357603
0.215294197 0.698120415 0.479100525
0.036631234 0.710147381 0.43937695
0.229656607 0.699782312 0.455495328
0.126382187 0.689128697 0.377695054
0.223563433 0.70997715 0.424516112
0.0811347216 0.735256791 0.412010044
0.186393127 0.753474534 0.485629886
0.0610699095 0.716921747 0.466139615
0.196564406 0.743115366 0.449887961
0.0796818882 0.677414 0.3803882
0.156948999 0.726632237 0.457163274
0.412644804 0.72370404 0.359591246
0.169441715 0.687716365 0.42673555
0.365776777 0.711032271 0.364617735
0.191976011 0.742755294 0.408535749
0.289618909 0.718175054 0.436578661
0.170595974 0.742932022 0.396220624
0.186316788 0.761237919 0.469777882
0.431097686 0.720528543 0.356706113
0.160643399 0.743761778 0.424127996
0.382893741 0.743352234 0.363107204
0.0721124485 0.677264988 0.380416512
0.255361527 0.759706259 0.42914781
0.105695777 0.748213708 0.30968371
0.203253776 0.757536054 0.421816677
0.430790365 0.72892344 0.329091966
0.144454673 0.730800271 0.481970638
0.330118269 0.765485108 0.430136532
0.127697989 0.759760618 0.370112687
0.282655388 0.795198858 0.407766789
0.463311762 0.701471448 0.367232382
0.212705448 0.772288382 0.427227914
0.430179626 0.746098042 0.380443633
0.286321193 0.784219027 0.408654839
0.419408381 0.768576086 0.378158361
0.203803033 0.775190532 0.37472558
0.427384526 0.768084824 0.373305857
0.31117186 0.731241286 0.359867632
0.468731105 0.778362334 0.38737759
0.337949127 0.76714164 0.229845941
0.423511446 0.780072451 0.369733185
0.228269026 0.80916965 0.285506725
0.398138672 0.793470681 0.348748475
0.618737519 0.768167973 0.367301226
0.370173007 0.791990638 0.36401388
0.57974869 0.765153229 0.412164658
0.342728764 0.811049461 0.292895883
0.438878119 0.792012572 0.381121904
0.301900774 0.8032763 0.202245086
0.431202382 0.798269808 0.352704704
0.576871932 0.82437247 0.385566086
0.342828751 0.775419652 0.358856589
0.518426895 0.788648784 0.415121406
0.343021899 0.818334758 0.184076548
0.518642664 0.755681098 0.389766663
0.615377426 0.820554495 0.345577598
0.413837045 0.804807067 0.331117004
0.618674457 0.827433407 0.330562472
0.330224663 0.82498008 0.154313698
0.479991347 0.819599867 0.347741365
0.692797482 0.814583421 0.3985385
0.422169626 0.852674365 0.354492545
0.569506347 0.820489228 0.367815584
0.386862338 0.836965144 0.144818723
0.505308747 0.829212964 0.349453181
0.321103752 0.825467527 0.0944883823
0.429997683 0.835742593 0.363613695
0.632178724 0.818208039 0.327207953
0.356983244 0.81383425 0.287081301
0.558818519 0.904328406 0.296128184
0.313266665 0.865645468 0.149805635
0.508074105 0.850909531 0.315342814
0.704564869 0.892492115 0.329097003
0.394879311 0.811238885 0.371651232
0.579329848 0.86408174 0.314854354
0.349186271 0.861881435 0.105050094
0.519442797 0.862150669 0.385176003
0.682215333 0.813556254 0.350463688
0.458597004 0.87324059 0.359763116
0.619376957 0.882174492 0.360954046
0.438568383 0.852064729 0.354556739
0.655353427 0.904824078 0.399049908
0.385301113 0.811641812 0.297982544
0.506585002 0.887926579 0.350713044
0.307222515 0.98299247 0.0740553737
0.584385395 0.872902572 0.339529008
0.495088875 0.864620507 0.00303680333
0.589122951 0.877626121 0.335141122
0.4086501 0.905926764 0.0508728437
0.64400959 0.894406617 0.362188905
0.394219816 0.887949169 0.0209657084
0.560961127 0.883895278 0.354250282
0.38932991 0.8462134 0.0455551781
0.523627698 0.893869579 0.383588374
0.296950191 0.953694582 -0.0501702875
0.499749094 0.899517834 0.354773134
0.683369279 0.882349253 0.337751269
0.498166502 0.905531764 0.351259768
0.760535479 0.887253642 0.363889992
0.499432415 0.866370022 0.336255133
0.437293231 0.906887472 -0.0394243747
0.523987472 0.906345785 0.34496215
0.434322804 0.874640167 -0.0367556699
0.633737445 0.853722453 0.293958157
0.460092485 0.928068876 -0.0466176905
0.622417986 0.930132926 0.329787642
0.538479626 0.929924965 -0.0540097654
0.692891955 0.919784844 0.340830177
0.572538197 0.847940028 0.276476562
0.585585117 0.95634073 0.343306571
0.505302548 0.946320236 -0.0598869361
0.554780662 0.904159844 0.305991918
0.645615757 0.927593172 0.383681774
0.539883554 0.966545224 0.305041939
0.604546666 0.958659351 0.368331462
