ply
format ascii 1.0
comment Written with hapPLY (https://github.com/nmwsharp/happly)
element vertex 894
property float x
property float y
property float z
end_header
0.322528362 0 0.654558837
0.614262581 0.00106450322 0.664429128
0.317666113 0.00476240646 0.65619123
0.466774702 0.0112927137 0.71666646
0.612641811 0.00617243769 0.669350386
0.205834672 0.00917145982 0.654533505
0.351701766 0.00838314649 0.64713192
0.497568876 0.014667742 0.705756247
0.643435955 0.010223018 0.664402604
0.200972438 0.0133218793 0.650409698
0.346839547 0.0127118258 0.644653499
0.492706627 0.0194768086 0.708077788
0.638573706 0.0148900999 0.665211678
0.183144256 0.015052177 0.623261571
0.329011321 0.0178236477 0.649575353
0.47487843 0.0247008111 0.71429044
0.62074554 0.0198152363 0.668487489
0.769854128 0.0078638522 0.555011332
0.23987034 0.0247364584 0.671763361
0.385737419 0.0268460233 0.691704988
0.531604528 0.0271786079 0.694818139
0.677471638 0.0236174949 0.661074221
0.823338747 0.00880972575 0.519649267
0.273905993 0.028712485 0.665994167
0.419773102 0.0333951451 0.710370839
0.565640211 0.0305834617 0.68390727
0.711507261 0.027514426 0.654483616
0.145867109 0.00896402635 0.430852443
0.291734189 0.032355275 0.65693742
0.437601298 0.0385264084 0.715806127
0.583468378 0.0344816744 0.677491069
0.729335487 0.0314197615 0.647894323
0.150729328 0.0138586592 0.432498842
0.296596438 0.0366016217 0.653636932
0.442463517 0.0429977216 0.715013921
0.588330626 0.038799338 0.675010681
0.734197736 0.0356713012 0.644593835
0.1426256 0.0177432746 0.424281031
0.288492709 0.041271314 0.654446006
0.434359789 0.0466534831 0.706437588
0.580226898 0.043456085 0.675818443
0.726094007 0.0408512056 0.650335848
0.871961117 0.0267345179 0.512236595
0.273905993 0.0460239872 0.656077802
0.419773102 0.0503170192 0.697861254
0.565640211 0.0482794233 0.67827034
0.711507261 0.0458573699 0.654433727
0.85737437 0.034750089 0.545112491
0.256077796 0.0506917201 0.656886876
0.401944876 0.0536648296 0.686171114
0.547811985 0.0531799011 0.681500793
0.693679094 0.0505257547 0.655243397
0.839546204 0.0405659601 0.556613922
0.228525132 0.0545335412 0.649477482
0.374392211 0.0549458712 0.653587043
0.520259321 0.0584732443 0.68849206
0.66612643 0.0563481264 0.667558491
0.811993539 0.0455429479 0.559895635
0.19124797 0.0536304638 0.594404519
0.337115049 0.0576473288 0.63467294
0.482982159 0.0642418042 0.70015496
0.628849268 0.0630392283 0.68847847
0.774716377 0.055515714 0.613306344
0.147487834 0.0404161997 0.414433956
0.293354928 0.0621640235 0.633839846
0.439222038 0.0683228374 0.695470333
0.585089147 0.0675247908 0.687685549
0.730956256 0.0628155693 0.640413582
0.876823306 0.0546703301 0.558239222
0.246353313 0.0670048445 0.63629365
0.392220408 0.0687857419 0.654370844
0.538087487 0.0714554116 0.681443751
0.683954597 0.0703235045 0.669983149
0.829821706 0.0601257756 0.566450536
0.196110204 0.0523818322 0.439911813
0.341977298 0.0707980469 0.628066123
0.487844408 0.0760239884 0.681429505
0.633711517 0.078001298 0.700891376
0.779578626 0.0692700148 0.61245507
0.925445676 0.0604239926 0.522075176
0.288492709 0.0746009573 0.619839847
0.434359789 0.0802742243 0.678171813
0.580226898 0.0825614184 0.70087713
0.726094007 0.0769186318 0.643665433
0.871961117 0.0702865571 0.575474203
0.2382496 0.0622191094 0.444022685
0.384116679 0.0795260966 0.623115718
0.529983759 0.0865724385 0.695413947
0.675850868 0.0859455541 0.689185739
0.821717978 0.0744453818 0.570538044
0.188006476 0.0636239722 0.409522384
0.33387357 0.0842891335 0.624748111
0.479740679 0.0886268914 0.669929326
0.625607789 0.0927727669 0.711748481
0.771474898 0.0838158652 0.619819105
0.917341948 0.0770327225 0.549172759
0.293354928 0.087717995 0.612416208
0.439222038 0.0913225263 0.650201619
0.585089147 0.0978716239 0.717184424
0.730956256 0.0923409984 0.660879731
0.876823306 0.0845050141 0.578738391
0.265802264 0.088982828 0.57708782
0.411669344 0.0937309638 0.627190888
0.557536483 0.101573415 0.70860678
0.703403533 0.0983241424 0.675651193
0.849270642 0.0887494311 0.574623644
0.2382496 0.0800071359 0.432530373
0.384116679 0.0970969051 0.61403954
0.529983759 0.105591558 0.703142941
0.675850868 0.105514422 0.702364981
0.821717978 0.0943131223 0.584472597
0.967585087 0.0863481238 0.499877483
0.363046974 0.102271646 0.620613277
0.508914113 0.109348461 0.695365965
0.654781163 0.110571153 0.707822323
0.800648272 0.101501442 0.61239934
0.946515381 0.0941808671 0.534367561
0.338735789 0.107135169 0.623902738
0.484602898 0.112812974 0.684475839
0.630470037 0.11584764 0.715614259
0.776337087 0.107826248 0.631295919
0.922204196 0.101222694 0.560649574
0.314424634 0.111231759 0.618976951
0.460291713 0.114904374 0.658411026
0.606158853 0.121113762 0.723406136
0.752025902 0.114904374 0.658411026
0.897893012 0.107405514 0.577899516
0.290113449 0.11403501 0.600082994
0.435980529 0.11594101 0.620623648
0.581847668 0.125172123 0.718742967
0.727714717 0.121581838 0.681380212
0.873581827 0.111900158 0.577077448
0.265802264 0.114115387 0.551603854
0.411669344 0.118978284 0.604192555
0.557536483 0.129608423 0.717971444
0.703403533 0.126712471 0.687616229
0.849270642 0.115939051 0.571325123
0.235008091 0.105671957 0.410255343
0.3808752 0.124675527 0.616521239
0.52674228 0.133456081 0.71097374
0.672609389 0.133308902 0.709417164
0.818476498 0.124372773 0.613234341
0.964343607 0.116877146 0.531878114
0.353322506 0.130213931 0.627208412
0.499189615 0.137093678 0.701642156
0.645056725 0.138557538 0.717207789
0.790923834 0.130817518 0.633782804
0.936790884 0.124103077 0.560637891
0.325769842 0.134768233 0.627212286
0.471636951 0.139278442 0.676528335
0.61750406 0.143868387 0.725775063
0.76337111 0.137474224 0.656801939
0.909238219 0.130032405 0.575430751
0.294975668 0.137300476 0.605022371
0.440842777 0.139397725 0.628038228
0.586709857 0.148013622 0.721891105
0.732576966 0.144551694 0.684538066
0.878444076 0.134379253 0.572963357
0.264181525 0.136787027 0.549122214
0.410048634 0.142234668 0.609134495
0.555915713 0.153238252 0.729679704
0.701782823 0.149801612 0.692328691
0.847649932 0.139622703 0.580361128
0.220421374 0.135417819 0.483345211
0.376012951 0.148357213 0.626401901
0.521880031 0.156959489 0.721127391
0.66774714 0.156248942 0.713345826
0.813614249 0.148357213 0.626401901
0.959481359 0.141143605 0.546652198
0.325769842 0.153207779 0.629695296
0.471636951 0.157431439 0.676563382
0.61750406 0.162808418 0.735917628
0.76337111 0.156023338 0.660939991
0.909238219 0.1480214 0.572138071
0.259319276 0.150231436 0.545822382
0.405186385 0.15635851 0.614075184
0.551053464 0.166956887 0.73203367
0.696920574 0.164018139 0.699356198
0.842787683 0.155030131 0.599273264
0.988654792 0.14668785 0.506350696
0.322528362 0.162315071 0.629703701
0.468395442 0.166360453 0.67493546
0.614262581 0.171875522 0.736707926
0.760129631 0.165330321 0.66342169
0.90599674 0.156798065 0.568023324
0.230145857 0.158880383 0.540057659
0.376012951 0.167088509 0.632175028
0.521880031 0.175133198 0.722711146
0.66774714 0.175133198 0.722711146
0.813614249 0.166868061 0.629707634
0.959481359 0.1595397 0.54745996
0.270664483 0.167113766 0.581181169
0.416531593 0.169888481 0.612438202
0.562398672 0.180530325 0.73283112
0.708265781 0.177521542 0.698602915
0.854132891 0.167625293 0.586938739
1 0.157841161 0.47671634
0.301458657 0.174665779 0.614908874
0.447325766 0.177284911 0.644523799
0.593192875 0.185302407 0.735949397
0.739059925 0.180121884 0.676606834
0.884927034 0.16913709 0.55238831
0.173419759 0.171324447 0.525235653
0.319286853 0.180529013 0.629720569
0.465153962 0.184949756 0.679905951
0.611021042 0.18959935 0.733622015
0.756888151 0.183572769 0.664274216
0.90275526 0.174005836 0.55567646
0.181523487 0.177428171 0.5425089
0.327390581 0.185443118 0.633838594
0.473257691 0.19109498 0.698627532
0.61912477 0.193966284 0.732072592
0.764991879 0.187681675 0.65934521
0.910858989 0.178511485 0.554850578
0.186385751 0.183520883 0.55978477
0.33225283 0.190211341 0.636311829
0.47811994 0.196281984 0.706412971
0.623987019 0.198335156 0.730523825
0.769854128 0.191937745 0.656060934
0.915721238 0.18287389 0.552379251
0.184764981 0.189100787 0.571303725
0.330632091 0.194762409 0.636317015
0.47649917 0.200866759 0.707198679
0.622366309 0.202837572 0.730530322
0.768233359 0.196482971 0.656067431
0.914100468 0.187165618 0.549083948
0.183144256 0.194316387 0.5787099
0.329011321 0.199314088 0.636321545
0.47487843 0.205450237 0.707983792
0.62074554 0.207340047 0.730536819
0.766612649 0.201098844 0.656897247
0.912479699 0.191459954 0.545788646
0.181523487 0.199455425 0.585294008
0.327390581 0.203936443 0.637149453
0.473257691 0.209968254 0.70799154
0.61912477 0.211907282 0.731321216
0.764991879 0.205786079 0.658550382
0.910858989 0.195685551 0.541669369
0.176661253 0.204235971 0.587763369
0.322528362 0.208558172 0.637977958
0.468395442 0.214230135 0.704888821
0.614262581 0.21660161 0.733660281
0.760129631 0.210896567 0.665142953
0.90599674 0.19970113 0.535080075
0.175040528 0.209226578 0.592703402
0.320907623 0.213250563 0.639629126
0.466774702 0.218686566 0.704119265
0.612641811 0.221165612 0.734444082
0.758508921 0.216073915 0.67255944
0.90437603 0.203861922 0.530135512
0.170178264 0.213933215 0.594350696
0.316045374 0.217870995 0.64045769
0.461912483 0.222766295 0.698684573
0.607779562 0.22598055 0.738338411
0.753646672 0.22131671 0.680801272
0.899513781 0.207885236 0.523543596
0.158833042 0.21828784 0.591881335
0.304700136 0.222210675 0.637992859
0.450567245 0.226103723 0.683920264
0.596434355 0.23097764 0.744564652
0.742301464 0.226728708 0.691695273
0.888168573 0.213314086 0.533419132
0.137763381 0.22194685 0.581176639
0.283630461 0.22599417 0.62893939
0.42949757 0.227249935 0.643762052
0.575364649 0.235780209 0.74845767
0.721231759 0.232001305 0.701033413
0.867098868 0.221179232 0.572117984
0.103727728 0.221719936 0.524349451
0.249594808 0.23068656 0.630590618
0.395461917 0.230825916 0.632237911
0.541329026 0.239410684 0.737579226
0.687196076 0.237998039 0.719699204
0.833063185 0.229713425 0.619060576
0.978930295 0.218521863 0.486465454
0.21231766 0.235309556 0.631418467
0.358184755 0.236139998 0.641302407
0.504051864 0.243360758 0.730589271
0.649918973 0.243664831 0.734476507
0.795786083 0.236763045 0.648715079
0.941653132 0.225130633 0.510341644
0.178281978 0.238896593 0.619890451
0.324149102 0.241034687 0.645426214
0.470016211 0.246776685 0.716604233
0.615883291 0.248406485 0.73759222
0.7617504 0.243931934 0.680022657
0.907617509 0.227723196 0.486446679
0.147487834 0.242422685 0.607537091
0.293354928 0.245376989 0.642960787
0.439222038 0.247987658 0.674265146
0.585089147 0.253800958 0.749257684
0.730956256 0.250331938 0.704174399
0.876823306 0.2383008 0.55810827
0.126418173 0.245751709 0.592709243
0.272285253 0.25026837 0.647085905
0.418152332 0.249242157 0.634727359
0.564019442 0.257994145 0.745376945
0.709886551 0.255682319 0.71506387
0.85575366 0.245614916 0.591061234
0.111831449 0.249158502 0.578702748
0.257698536 0.254611999 0.644619763
0.403565645 0.253725737 0.633907914
0.549432755 0.262252212 0.742274225
0.695299804 0.260665804 0.7212888
0.841166914 0.252089471 0.614132881
0.123176672 0.25515461 0.596006453
0.269043744 0.259500146 0.648745537
0.414910853 0.258617193 0.638033092
0.560777962 0.266746163 0.742280066
0.706645072 0.264883637 0.717410028
0.852512121 0.255426258 0.599303067
0.160453826 0.262086242 0.624851882
0.306320906 0.263641506 0.643806815
0.452188015 0.26945281 0.718194485
0.598055124 0.271413922 0.744617164
0.743922174 0.267837942 0.696434975
0.889789283 0.254579574 0.533374369
0.200972438 0.268055737 0.642163992
0.346839547 0.268527061 0.647933185
0.492706627 0.275449604 0.738406479
0.638573706 0.274821401 0.729858637
0.784440815 0.269941628 0.66524148
0.0826580226 0.265627891 0.556444705
0.228525132 0.273410052 0.65206027
0.374392211 0.272672296 0.642993808
0.520259321 0.280060261 0.739966929
0.66612643 0.278984785 0.72520256
0.811993539 0.272873282 0.645466447
0.103727728 0.272811651 0.588591874
0.249594808 0.278357178 0.657013297
0.395461917 0.276753962 0.637228549
0.541329026 0.284892678 0.744635344
0.687196076 0.282986075 0.718216538
0.833063185 0.275818497 0.62568754
0.124797396 0.279308259 0.612500489
0.270664483 0.282635361 0.653721869
0.416531593 0.283034652 0.658668995
0.562398672 0.289052159 0.739979267
0.708265781 0.2871086 0.71278441
0.854132891 0.278176963 0.598484933
0.1426256 0.285060585 0.627344549
0.288492709 0.287181199 0.653729022
0.434359789 0.290853798 0.701915085
0.580226898 0.293548793 0.739985049
0.726094007 0.291018486 0.704245687
0.871961117 0.280487508 0.570453167
0.157212317 0.290472597 0.63806808
0.303079396 0.291528672 0.651261568
0.448946506 0.296901137 0.723676503
0.594813585 0.29809919 0.740768194
0.740680695 0.295048952 0.697261572
0.886547804 0.282749444 0.541590929
0.16855754 0.29568103 0.646319628
0.314424634 0.295746535 0.647144258
0.460291713 0.301893681 0.730674863
0.606158853 0.302594513 0.740774035
0.752025902 0.299142927 0.691054761
0.897893012 0.28522855 0.515197396
0.179902762 0.30075264 0.652923167
0.325769842 0.300033033 0.643850923
0.471636951 0.306770146 0.73611927
0.61750406 0.307090461 0.740780532
0.76337111 0.303085864 0.682518005
0.0486223698 0.293301791 0.50116241
0.194489479 0.305559814 0.65622884
0.340356559 0.30484277 0.647155881
0.486223668 0.311533213 0.740009725
0.632090747 0.311480075 0.739233077
0.777957857 0.306798697 0.671900809
0.0599675849 0.301598698 0.548173726
0.205834672 0.31003952 0.655410707
0.351701766 0.309779555 0.652111471
0.497568876 0.315924793 0.73846221
0.643435955 0.315767258 0.736132264
0.789303064 0.310299486 0.658710539
0.0745543018 0.308312476 0.575394452
0.220421374 0.314519912 0.654592514
0.366288483 0.314390898 0.652942598
0.512155592 0.320421398 0.738468051
0.658022702 0.31995526 0.731478095
0.803889811 0.313938409 0.647167563
0.0891410187 0.314622372 0.597670019
0.235008091 0.319258958 0.657074213
0.3808752 0.318357229 0.645523489
0.52674228 0.324867398 0.737697899
0.672609389 0.323996097 0.724494636
0.818476498 0.318035007 0.64139837
0.106969178 0.320597082 0.615824282
0.252836317 0.324187994 0.66203177
0.398703396 0.323098212 0.648004532
0.544570506 0.329467118 0.739257038
0.690437615 0.3278943 0.715181828
0.836304724 0.320917994 0.619950056
0.115072951 0.325601935 0.621603847
0.260940015 0.328794807 0.662864149
0.406807125 0.32802853 0.652962089
0.552674234 0.333963692 0.739263535
0.698541343 0.331855416 0.706646323
0.844408393 0.324516684 0.607575357
0.123176672 0.330708563 0.628210008
0.269043744 0.333369195 0.662868083
0.414910853 0.332925767 0.657091737
0.560777962 0.338438243 0.738488197
0.706645072 0.336202919 0.703542292
0.852512121 0.328364998 0.597678423
0.128038898 0.335618794 0.632340968
0.273905993 0.337880075 0.662046015
0.419773102 0.337942958 0.662871301
0.565640211 0.34291473 0.737713456
0.711507261 0.34045577 0.698884904
0.85737437 0.332414895 0.590258658
0.129659623 0.340336472 0.633995473
0.275526732 0.342329979 0.660399318
0.421393842 0.342579544 0.663699806
0.567260921 0.347391248 0.736938059
0.71312803 0.344860941 0.696557522
0.85899514 0.336722225 0.586139381
0.131280392 0.344989955 0.634825289
0.277147472 0.346720248 0.657927394
0.423014581 0.347029477 0.662053168
0.568881691 0.351869673 0.736163378
0.7147488 0.349220753 0.693454146
0.860615909 0.341097564 0.582846045
0.129659623 0.349520266 0.634005189
0.275526732 0.351113796 0.655456066
0.421393842 0.35129723 0.657931268
0.567260921 0.356300801 0.734611332
0.71312803 0.35377565 0.693456054
0.85899514 0.345905334 0.585327685
0.128038898 0.353990912 0.632359803
0.273905993 0.355631769 0.654634655
0.419773102 0.355753005 0.656284571
0.565640211 0.360781193 0.733836591
0.711507261 0.358329952 0.693458676
0.85737437 0.350709885 0.587809384
0.129659623 0.358644396 0.633188963
0.275526732 0.360210687 0.654638588
0.421393842 0.360331267 0.656288505
0.567260921 0.365169525 0.731508553
0.71312803 0.362558186 0.688025951
0.85899514 0.355029494 0.583691418
0.128038898 0.363177299 0.632368863
0.273905993 0.364849895 0.655467093
0.419773102 0.364969224 0.657117009
0.565640211 0.369561076 0.729180574
0.711507261 0.367070347 0.687251866
0.85737437 0.35977307 0.585347772
0.126418173 0.367592871 0.629898846
0.272285253 0.369428843 0.655470312
0.418152332 0.369724452 0.65959543
0.564019442 0.37395528 0.726853192
0.709886551 0.371492386 0.684924483
0.85575366 0.36439544 0.585354269
0.128038898 0.372246355 0.630728662
0.273905993 0.374066114 0.656299472
0.419773102 0.374418139 0.661248624
0.565640211 0.378352672 0.72452575
0.711507261 0.375872284 0.681821704
0.85737437 0.368724167 0.581236959
0.129659623 0.376898557 0.631557822
0.275526732 0.378702104 0.65712738
0.421393842 0.37893486 0.660427213
0.567260921 0.382664502 0.72064507
0.71312803 0.38027361 0.679398358
0.85899514 0.373000324 0.576294959
0.134521887 0.381607801 0.633212328
0.280388981 0.383279711 0.657131255
0.426256061 0.383222044 0.656306624
0.57212317 0.386980861 0.716764987
0.717990279 0.38466385 0.676926374
0.863857388 0.376706004 0.563105345
0.139384106 0.386314452 0.634866774
0.2852512 0.387743264 0.655485272
0.431118309 0.387457371 0.651361406
0.576985419 0.391301751 0.712884903
0.722852528 0.389115095 0.675279737
0.868719578 0.380599678 0.552390933
0.144246325 0.39096272 0.635695934
0.290113449 0.392208725 0.653839886
0.435980529 0.392152369 0.653015256
0.581847668 0.395585716 0.708228827
0.727714717 0.393568248 0.673633039
0.873581827 0.384392828 0.540027857
0.149108604 0.395553976 0.635700464
0.294975668 0.396564037 0.650544584
0.440842777 0.397013277 0.657142282
0.586709857 0.399874896 0.703572094
0.732576966 0.398023307 0.671986401
0.878444076 0.388426602 0.530965328
0.157212317 0.400200337 0.636529624
0.303079396 0.400812328 0.645600617
0.448946506 0.401757538 0.659619451
0.594813585 0.404170513 0.698916674
0.740680695 0.402368844 0.668691099
0.886547804 0.388912797 0.46912545
0.162074551 0.404790908 0.636534154
0.307941645 0.405286878 0.643955231
0.453808755 0.406223655 0.657974064
0.599675834 0.408306003 0.691155255
0.745542943 0.406663865 0.664571166
0.891410053 0.390687853 0.425432354
0.16693677 0.40938285 0.636538744
0.312803864 0.409817159 0.64313513
0.458670974 0.410692394 0.656328678
0.604538083 0.412164003 0.678591847
0.750405192 0.410854459 0.658801913
0.0291734301 0.405052841 0.500492692
0.175040528 0.414024621 0.637367249
0.320907623 0.414296925 0.6414904
0.466774702 0.415269345 0.656331897
0.612641811 0.415483266 0.659630477
0.758508921 0.414893359 0.650560081
0.0405186489 0.411282301 0.524414241
0.186385751 0.418828517 0.6406703
0.33225283 0.41856271 0.636547148
0.47811994 0.419528663 0.651388645
0.623987019 0.419956565 0.657984436
0.769854128 0.418776661 0.639845669
0.0583468117 0.417635679 0.550806463
0.204213947 0.423418462 0.640674233
0.350081027 0.422834992 0.631605208
0.495948136 0.424215883 0.65304178
0.641815245 0.424799323 0.662110865
0.787682295 0.422517359 0.626658022
0.0761750266 0.423386067 0.568127692
0.222042128 0.428008407 0.640678763
0.367909223 0.427431464 0.631609738
0.513776302 0.42858538 0.649747789
0.659643412 0.429531902 0.664587319
0.805510521 0.425856084 0.606876493
0.0972447395 0.429214269 0.58709693
0.243111819 0.432488173 0.639034033
0.388978928 0.432176977 0.634087503
0.534846008 0.433220744 0.650575697
0.680713117 0.434154272 0.665415227
0.826580226 0.429162413 0.586272299
0.121555895 0.435074866 0.606888175
0.267423004 0.436617821 0.631619453
0.413290113 0.436922491 0.636565328
0.559157193 0.437953323 0.653052807
0.705024302 0.438264519 0.657999337
0.850891411 0.431723177 0.553304374
0.149108604 0.440189928 0.6151371
0.294975668 0.441207767 0.631623983
0.440842777 0.441823661 0.641515732
0.586709857 0.442685902 0.65552932
0.732576966 0.44212833 0.646462202
0.0372771509 0.437026262 0.488200307
0.183144256 0.445447654 0.625858665
0.329011321 0.445752352 0.630804539
0.47487843 0.446562707 0.643992841
0.62074554 0.446659952 0.645641446
0.766612649 0.445194781 0.621736765
0.0745543018 0.445856035 0.556624949
0.220421374 0.450199664 0.628336489
0.366288483 0.449551404 0.617620766
0.512155592 0.451399028 0.648118615
0.658022702 0.450893372 0.639876187
0.803889811 0.448352009 0.597838581
0.121555895 0.453557849 0.607735455
0.267423004 0.454647005 0.62586838
0.413290113 0.454692364 0.626692355
0.559157193 0.456326097 0.653892338
0.705024302 0.455580533 0.641528666
0.850891411 0.449356884 0.537675858
0.171799034 0.45865348 0.615983129
0.317666113 0.459243417 0.625873566
0.463533223 0.459924132 0.637411952
0.609400332 0.460514098 0.647302449
0.755267441 0.459048957 0.622576356
0.0794165209 0.45982039 0.557472944
0.225283623 0.463502735 0.620109558
0.371150732 0.463061899 0.6126917
0.517017841 0.465000302 0.645658314
0.662884891 0.464131594 0.630823314
0.808752 0.461518973 0.58631897
0.136142612 0.467625946 0.611872911
0.282009721 0.467956573 0.617642105
0.42787683 0.468099207 0.620114744
0.573743939 0.469823629 0.649782836
0.719610989 0.468436301 0.625883281
0.0470015965 0.465220749 0.489913762
0.192868695 0.472274244 0.612702727
0.338735789 0.472183466 0.611054778
0.484602898 0.473505974 0.634128988
0.630470037 0.473979264 0.642370164
0.776337087 0.472040832 0.608582139
0.110210679 0.479833394 0.664623618
0.256077796 0.476695597 0.609412014
0.401944876 0.476695597 0.609412014
0.547811985 0.478757173 0.645670652
0.693679094 0.477629185 0.625892997
0.839546204 0.472572446 0.536895275
0.173419759 0.481531948 0.613537729
0.319286853 0.481253147 0.608593822
0.465153962 0.482180208 0.625074208
0.611021042 0.483295292 0.644850552
0.756888151 0.481253147 0.608593822
0.0842787474 0.489116997 0.667102098
0.230145857 0.485590279 0.603655756
0.376012951 0.485266119 0.597887814
0.521880031 0.487373114 0.635791242
0.66774714 0.486828536 0.625902772
0.813614249 0.483392537 0.564104378
0.141004831 0.494841516 0.690424621
0.28687197 0.490018159 0.600365639
0.432739049 0.490199685 0.603661597
0.578606129 0.492235333 0.640739024
0.724473238 0.490653485 0.611900806
0.0486223698 0.498167247 0.665460587
0.194489479 0.49543795 0.61520195
0.340356559 0.494407117 0.596252203
0.486223668 0.495794505 0.621793211
0.632090747 0.496514112 0.634975672
0.777957857 0.494050562 0.589660943
0.102106959 0.503982484 0.6912058
0.247974068 0.499068409 0.597082019
0.393841177 0.498711854 0.590491414
0.539708257 0.500974417 0.632508934
0.685575366 0.500131607 0.616855085
0.831442475 0.494290411 0.508103728
0.155591547 0.508903086 0.700519919
0.301458657 0.503159165 0.587202609
0.447325766 0.503684282 0.597088516
0.593192875 0.505739391 0.635808706
0.739059925 0.503943563 0.602031767
0.0599675849 0.512663186 0.68029952
0.205834672 0.509292066 0.616042137
0.351701766 0.507690728 0.585561097
0.497568876 0.509253144 0.615218103
0.643435955 0.509856105 0.626751363
0.789303064 0.506958187 0.571556568
0.110210679 0.518154323 0.704403877
0.256077796 0.512617826 0.591334164
0.401944876 0.512105644 0.581448913
0.547811985 0.514452517 0.626756549
0.693679094 0.513467073 0.60781002
0.0178282131 0.520397425 0.653120875
0.163695276 0.522698879 0.704405844
0.309562385 0.516429842 0.575690091
0.455429494 0.51731801 0.592988014
0.601296604 0.51913321 0.628409088
0.747163713 0.517233729 0.591340661
0.0713128 0.526595116 0.686562061
0.217179909 0.523522198 0.624295592
0.363046974 0.520935476 0.573225915
0.508914113 0.522809088 0.610292375
0.654781163 0.523061872 0.615234375
0.800648272 0.51939255 0.542748749
0.128038898 0.532099187 0.712945223
0.273905993 0.525895 0.579822361
0.419773102 0.525363386 0.569114387
0.565640211 0.527872264 0.619358182
0.711507261 0.526841462 0.598766267
0.0421393737 0.535548151 0.681911826
0.188006476 0.535606503 0.683463871
0.33387357 0.529914439 0.567474842
0.479740679 0.531211019 0.593830764
0.625607789 0.532267749 0.615245402
0.771474898 0.529583752 0.560885549
0.105348453 0.541000307 0.707518339
0.251215547 0.536475182 0.607014596
0.397082627 0.53410244 0.558422685
0.542949736 0.536630809 0.610309243
0.688816845 0.536073208 0.598778605
0.0291734301 0.544248283 0.672905684
0.175040528 0.545330942 0.701313436
0.320907623 0.538582206 0.555136442
0.466774702 0.539612949 0.576549113
0.612641811 0.541201293 0.60949111
0.758508921 0.539100826 0.56584245
0.102106959 0.550063491 0.706746161
0.247974068 0.546005189 0.613614261
0.393841177 0.542873919 0.547732234
0.539708257 0.545493066 0.602908909
0.685575366 0.545104086 0.594673574
0.0324149281 0.553467095 0.674558163
0.178281978 0.554251552 0.695887208
0.324149102 0.547327697 0.543623328
0.470016211 0.548410356 0.566680729
0.615883291 0.550031126 0.601267397
0.7617504 0.547600031 0.549387991
0.111831449 0.559301794 0.711405516
0.257698536 0.55494523 0.60786128
0.403565645 0.551444411 0.532103062
0.549432755 0.554374695 0.595509231
0.695299804 0.553843081 0.583981216
0.0486223698 0.563042462 0.684243083
0.194489479 0.562309921 0.66714102
0.340356559 0.556514084 0.540330589
0.486223668 0.557525456 0.562564015
0.632090747 0.558847964 0.591384768
0.777957857 0.553882003 0.482689768
0.134521887 0.568540037 0.712941349
0.280388981 0.562945247 0.579024971
0.426256061 0.559749126 0.508210063
0.57212317 0.563502789 0.591376305
0.717990279 0.562018156 0.558439553
0.0842787474 0.572967887 0.707502127
0.230145857 0.569888473 0.630069375
0.376012951 0.565188289 0.524671614
0.521880031 0.567249894 0.570783138
0.66774714 0.56769073 0.580664515
0.0405186489 0.576598346 0.676995814
0.186385751 0.576559544 0.67617178
0.33225283 0.569415212 0.513960421
0.47811994 0.569998682 0.527135134
0.623987019 0.572319567 0.579833388
0 0.575334191 0.541949451
0.145867109 0.58216083 0.707485855
0.291734189 0.576196373 0.561710835
0.437601298 0.572974324 0.487605184
0.583468378 0.576734483 0.574061573
0.729335487 0.574692369 0.527128041
0.115072951 0.586886883 0.712133527
0.260940015 0.582426548 0.597932577
0.406807125 0.577162445 0.475247949
0.555915713 0.580870688 0.561703742
0.701782823 0.58030659 0.548528969
0.0972447395 0.591548085 0.714453161
0.243111819 0.587781549 0.614392221
0.388978928 0.581745923 0.471948117
0.583468378 0.585616231 0.563342631
0.729335487 0.58306843 0.503236294
0.134521887 0.595904648 0.705909252
0.280388981 0.590776622 0.574862242
0.517017841 0.588779926 0.527107298
0.662884891 0.589778304 0.55098474
0.0713128 0.60050118 0.705900788
0.217179909 0.597590327 0.626726091
0.486223668 0.591807485 0.486756563
0.632090747 0.594290376 0.546860933
0.0502430946 0.604650199 0.688818753
0.196110204 0.602698803 0.63824439
0.341977298 0.594912827 0.447229803
0.653160453 0.598672926 0.539443731
0.0875202417 0.609797776 0.709765315
0.233387351 0.606309891 0.612713099
0.580226898 0.602867365 0.527086556
0.0307941549 0.612520516 0.652223647
0.176661253 0.612779915 0.658810377
0.322528362 0.604494691 0.449688166
0.0551053621 0.618426621 0.687240183
0.200972438 0.616086185 0.625046372
0.641815245 0.611094296 0.49743402
0.124797396 0.623373151 0.701202571
0.270664483 0.61866647 0.571524143
0.0810372457 0.627956569 0.700418115
0.226904377 0.62465024 0.606094003
0.0826580226 0.632520556 0.698857069
0.228525132 0.629175365 0.602792859
0.0842787474 0.637065172 0.696519911
0.230145857 0.633648574 0.597845674
0.0858995169 0.641635597 0.694958806
0.231766596 0.63812834 0.592898548
0.0907617435 0.646206141 0.693397701
0.236628845 0.642517328 0.585481346
0.0988654643 0.650776684 0.691836596
0.244732559 0.646809042 0.574771464
0.110210679 0.655347228 0.690274894
0.256077796 0.650932193 0.55912286
0.1183144 0.65987879 0.686383784
0.264181525 0.654964626 0.540182173
0.129659623 0.664384425 0.680940032
0.275526732 0.658543229 0.507247984
0.141004831 0.668799281 0.675168872
0.28687197 0.66175878 0.461966276
0.152350053 0.673149467 0.666928351
0.0178282131 0.67387557 0.545093
0.163695276 0.677428186 0.656218469
0.0291734301 0.680112123 0.594473898
0.175040528 0.681661546 0.643862545
0.0372771509 0.685305059 0.611751676
0.183144256 0.685862541 0.62986064
0.0486223698 0.690296888 0.623267412
0.194489479 0.690050542 0.615036607
0.0599675849 0.695139706 0.629844427
0.205834672 0.69450438 0.608443439
0.0713128 0.699898243 0.633951366
0.217179909 0.698984087 0.60267359
0.0794165209 0.704578876 0.635588944
0.225283623 0.703003585 0.580442786
0.0810372457 0.709104002 0.631465137
0.226904377 0.707645416 0.579611659
0.0729335248 0.713395774 0.61911118
0.218800634 0.712922513 0.601826906
0.0583468117 0.717557847 0.600995779
0.204213947 0.717797697 0.610049248
0.0340356529 0.721013248 0.555721223
0.179902762 0.722711861 0.619917631
0.325769842 0.716903031 0.398827225
0.149108604 0.727567554 0.628139377
0.294975668 0.722452462 0.430614263
0.111831449 0.731975973 0.6190781
0.257698536 0.729700446 0.529369831
0.0648298115 0.735619485 0.578742921
0.210696906 0.73615098 0.600141346
0.356564015 0.730770171 0.376942307
0.160453826 0.741065145 0.610831738
0.306320906 0.736559451 0.424836814
0.103727728 0.745324492 0.594364345
0.249594808 0.744196475 0.546632111
0.0470015965 0.748442769 0.527696609
0.192868695 0.749985754 0.594356537
0.341977298 0.745499492 0.398795843
0.145867109 0.754530311 0.589410722
0.294975668 0.751016498 0.433872938
0.0988654643 0.758595109 0.562246323
0.244732559 0.757940292 0.53262043
0.397082627 0.754407108 0.361169517
0.200972438 0.76332128 0.564707279
0.356564015 0.759729624 0.394406289
0.173419759 0.767826855 0.556470633
0.345218807 0.764676154 0.405773342
0.171799034 0.772215843 0.542473912
0.350081027 0.7694152 0.404018521
0.228525132 0.774601579 0.426439077
0.374392211 0.77399224 0.390891284
0.16855754 0.777920902 0.328774571
0.356564015 0.778919339 0.402258456
0.137763381 0.782990575 0.348889768
0.325769842 0.78367126 0.401378393
0.471636951 0.782718241 0.32789433
0.291734189 0.788903058 0.424774438
0.437601298 0.788027883 0.362002194
0.247974068 0.793564379 0.414892256
0.393841177 0.793162405 0.384739518
0.139384106 0.79734391 0.324360579
0.340356559 0.798037648 0.38648057
0.486223668 0.797363341 0.326110393
0.283630461 0.803275883 0.417344958
0.42949757 0.802640498 0.362847745
0.158833042 0.806854486 0.297212303
0.366288483 0.807561159 0.368087977
0.512155592 0.806860924 0.298087507
0.299837917 0.812844694 0.410746634
0.445705026 0.812112153 0.334826559
0.158833042 0.816527069 0.281435311
0.37925446 0.817175329 0.35494262
0.52512157 0.816533506 0.282310516
0.312803864 0.822452545 0.403939515
0.458670974 0.821732938 0.317302108
0.165316045 0.826141357 0.253403544
0.398703396 0.826789558 0.338294178
0.102106959 0.830711782 0.202626899
0.345218807 0.83205384 0.391670734
0.491085887 0.831366599 0.295398384
0.2852512 0.836799383 0.375907809
0.431118309 0.836403906 0.314641029
0.121555895 0.840753973 0.222724795
0.367909223 0.841616154 0.368896514
0.513776302 0.841071606 0.276991874
0.307941645 0.846575737 0.386393368
0.453808755 0.846102417 0.297986388
0.141004831 0.850634038 0.21919091
0.403565645 0.851133168 0.324234217
0.549432755 0.850679457 0.227944881
0.359805524 0.856261194 0.381123543
0.505672574 0.855781496 0.26644668
0.33225283 0.861110568 0.378488302
0.47811994 0.860741019 0.27606222
0.314424634 0.865907907 0.358343273
0.460291713 0.865681052 0.283052176
0.144246325 0.870316327 0.166595772
0.458670974 0.870595098 0.283039212
0.165316045 0.875120223 0.0963345096
0.460291713 0.875502706 0.279523492
0.147487834 0.880209446 0.115725122
0.442463517 0.880436242 0.29089269
0.126418173 0.885227263 0.120131589
0.424635321 0.885356903 0.307516694
0.108589955 0.890199661 0.100895934
0.410048634 0.890258014 0.332898974
0.0940032378 0.895172119 0.0768466666
0.401944876 0.895133197 0.34602353
0.547811985 0.895210981 0.196276814
0.403565645 0.900014877 0.345137239
0.549432755 0.900177002 0.194508255
0.408427864 0.904896557 0.339872003
0.102106959 0.910257995 0.0629290044
0.423014581 0.909810722 0.325847894
0.116693676 0.9153018 0.0638346672
0.444084287 0.914776683 0.298684597
0.141004831 0.920345604 0.0490327403
0.47811994 0.919813991 0.261008114
0.184764981 0.925447643 0.00374132651
0.531604528 0.924961448 0.205809385
0.465153962 0.929596782 0.275870979
0.424635321 0.934290469 0.318782687
0.16693677 0.940663218 0
0.447325766 0.944177032 0.303865522
0.487844408 0.949434698 0.252160758
0.455429494 0.95899713 0.28893289
0.465153962 0.968941987 0.275762051
